<svg width="34" height="299" viewBox="0 0 34 299" fill="none" xmlns="http://www.w3.org/2000/svg">
<rect x="15.7656" y="255.883" width="3" height="43" rx="1.5" fill="url(#paint0_linear_120_7)"/>
<circle cx="17.3241" cy="16.7921" r="16.5584" fill="url(#paint1_linear_120_7)"/>
<rect x="15.1367" y="30.8835" width="3" height="209" rx="1.5" fill="url(#paint2_linear_120_7)"/>
<path d="M18.3791 14.4884C18.2613 13.9938 18.0553 13.6229 17.7609 13.3756C17.4783 13.1284 17.0662 13.0047 16.5245 13.0047C15.7121 13.0047 15.1115 13.3344 14.723 13.9938C14.3462 14.6414 14.1519 15.7012 14.1401 17.173C14.4227 16.702 14.8348 16.337 15.3765 16.078C15.9181 15.8071 16.5069 15.6717 17.1427 15.6717C17.9081 15.6717 18.5851 15.8366 19.1739 16.1663C19.7626 16.496 20.2218 16.9787 20.5515 17.6146C20.8812 18.2387 21.0461 18.9923 21.0461 19.8754C21.0461 20.7114 20.8753 21.4591 20.5339 22.1185C20.2042 22.7661 19.7155 23.2724 19.0679 23.6375C18.4203 24.0025 17.649 24.185 16.7541 24.185C15.5295 24.185 14.564 23.9142 13.8575 23.3725C13.1628 22.8309 12.6741 22.0773 12.3915 21.1117C12.1207 20.1344 11.9853 18.9334 11.9853 17.5086C11.9853 15.3538 12.3562 13.7289 13.098 12.6338C13.8398 11.527 15.0115 10.9736 16.6128 10.9736C17.8492 10.9736 18.8089 11.3091 19.4918 11.9803C20.1747 12.6515 20.5692 13.4875 20.6752 14.4884H18.3791ZM16.5775 17.7029C15.9534 17.7029 15.4295 17.8854 15.0056 18.2504C14.5817 18.6155 14.3697 19.1453 14.3697 19.84C14.3697 20.5348 14.564 21.0823 14.9526 21.4826C15.3529 21.883 15.9122 22.0832 16.6305 22.0832C17.2663 22.0832 17.7668 21.8889 18.1318 21.5003C18.5086 21.1117 18.697 20.5878 18.697 19.9284C18.697 19.2454 18.5145 18.7038 18.1495 18.3034C17.7962 17.9031 17.2722 17.7029 16.5775 17.7029Z" fill="white"/>
<defs>
<linearGradient id="paint0_linear_120_7" x1="16.0898" y1="307.069" x2="20.7856" y2="306.883" gradientUnits="userSpaceOnUse">
<stop stop-color="#410DFF"/>
<stop offset="0.45" stop-color="#D900D5"/>
<stop offset="0.75" stop-color="#FF5E4F"/>
<stop offset="1" stop-color="#FFCD9E"/>
</linearGradient>
<linearGradient id="paint1_linear_120_7" x1="4.34439" y1="39.6552" x2="43.6081" y2="17.3651" gradientUnits="userSpaceOnUse">
<stop stop-color="#410DFF"/>
<stop offset="0.45" stop-color="#D900D5"/>
<stop offset="0.75" stop-color="#FF5E4F"/>
<stop offset="1" stop-color="#FFCD9E"/>
</linearGradient>
<linearGradient id="paint2_linear_120_7" x1="15.4609" y1="279.672" x2="20.1637" y2="279.634" gradientUnits="userSpaceOnUse">
<stop stop-color="#410DFF"/>
<stop offset="0.45" stop-color="#D900D5"/>
<stop offset="0.75" stop-color="#FF5E4F"/>
<stop offset="1" stop-color="#FFCD9E"/>
</linearGradient>
</defs>
</svg>
