<svg width="299" height="34" viewBox="0 0 299 34" fill="none" xmlns="http://www.w3.org/2000/svg">
<rect x="255.649" y="18.1169" width="3" height="43" rx="1.5" transform="rotate(-90 255.649 18.1169)" fill="url(#paint0_linear_120_7)"/>
<circle cx="16.5584" cy="16.5584" r="16.5584" transform="rotate(-90 16.5584 16.5584)" fill="url(#paint1_linear_120_7)"/>
<rect x="30.6504" y="18.7466" width="3" height="209" rx="1.5" transform="rotate(-90 30.6504 18.7466)" fill="url(#paint2_linear_120_7)"/>
<path d="M19.5285 13.4556C19.4107 12.961 19.2047 12.5901 18.9103 12.3429C18.6277 12.0956 18.2156 11.9719 17.6739 11.9719C16.8615 11.9719 16.261 12.3016 15.8724 12.961C15.4956 13.6087 15.3013 14.6684 15.2895 16.1403C15.5721 15.6693 15.9842 15.3042 16.5259 15.0452C17.0675 14.7744 17.6563 14.639 18.2921 14.639C19.0575 14.639 19.7345 14.8038 20.3233 15.1335C20.912 15.4632 21.3713 15.946 21.701 16.5818C22.0306 17.2059 22.1955 17.9595 22.1955 18.8426C22.1955 19.6786 22.0248 20.4263 21.6833 21.0857C21.3536 21.7333 20.8649 22.2397 20.2173 22.6047C19.5697 22.9697 18.7984 23.1522 17.9035 23.1522C16.679 23.1522 15.7134 22.8814 15.0069 22.3397C14.3122 21.7981 13.8235 21.0445 13.541 20.079C13.2701 19.1016 13.1347 17.9006 13.1347 16.4758C13.1347 14.321 13.5056 12.6961 14.2474 11.601C14.9893 10.4942 16.1609 9.94078 17.7623 9.94078C18.9986 9.94078 19.9583 10.2764 20.6412 10.9475C21.3242 11.6187 21.7186 12.4547 21.8246 13.4556H19.5285ZM17.7269 16.6701C17.1029 16.6701 16.5789 16.8526 16.155 17.2177C15.7311 17.5827 15.5191 18.1126 15.5191 18.8073C15.5191 19.502 15.7134 20.0495 16.102 20.4499C16.5023 20.8502 17.0616 21.0504 17.7799 21.0504C18.4158 21.0504 18.9162 20.8561 19.2812 20.4675C19.658 20.079 19.8464 19.555 19.8464 18.8956C19.8464 18.2126 19.6639 17.671 19.2989 17.2706C18.9456 16.8703 18.4216 16.6701 17.7269 16.6701Z" fill="white"/>
<defs>
<linearGradient id="paint0_linear_120_7" x1="255.974" y1="69.3031" x2="260.669" y2="69.1171" gradientUnits="userSpaceOnUse">
<stop stop-color="#410DFF"/>
<stop offset="0.45" stop-color="#D900D5"/>
<stop offset="0.75" stop-color="#FF5E4F"/>
<stop offset="1" stop-color="#FFCD9E"/>
</linearGradient>
<linearGradient id="paint1_linear_120_7" x1="3.57876" y1="39.4216" x2="42.8424" y2="17.1314" gradientUnits="userSpaceOnUse">
<stop stop-color="#410DFF"/>
<stop offset="0.45" stop-color="#D900D5"/>
<stop offset="0.75" stop-color="#FF5E4F"/>
<stop offset="1" stop-color="#FFCD9E"/>
</linearGradient>
<linearGradient id="paint2_linear_120_7" x1="30.9746" y1="267.535" x2="35.6774" y2="267.497" gradientUnits="userSpaceOnUse">
<stop stop-color="#410DFF"/>
<stop offset="0.45" stop-color="#D900D5"/>
<stop offset="0.75" stop-color="#FF5E4F"/>
<stop offset="1" stop-color="#FFCD9E"/>
</linearGradient>
</defs>
</svg>
