<svg width="331" height="34" viewBox="0 0 331 34" fill="none" xmlns="http://www.w3.org/2000/svg">
<rect x="255.649" y="18.1169" width="3" height="43" rx="1.5" transform="rotate(-90 255.649 18.1169)" fill="url(#paint0_linear_22_30)"/>
<rect x="314.649" y="18.1169" width="3" height="16" rx="1.5" transform="rotate(-90 314.649 18.1169)" fill="url(#paint1_linear_22_30)"/>
<circle cx="16.5584" cy="16.5584" r="16.5584" transform="rotate(-90 16.5584 16.5584)" fill="url(#paint2_linear_22_30)"/>
<rect x="30.6494" y="18.7466" width="3" height="209" rx="1.5" transform="rotate(-90 30.6494 18.7466)" fill="url(#paint3_linear_22_30)"/>
<path d="M10.9714 13.5153C11.0303 12.3378 11.4424 11.4312 12.2078 10.7953C12.9849 10.1477 14.0035 9.82389 15.2634 9.82389C16.1229 9.82389 16.8589 9.97697 17.4712 10.2831C18.0835 10.5775 18.5427 10.9837 18.8488 11.5018C19.1668 12.0081 19.3257 12.5851 19.3257 13.2327C19.3257 13.9745 19.1314 14.6045 18.7429 15.1226C18.3661 15.6289 17.9127 15.9704 17.3829 16.147V16.2177C18.0658 16.4296 18.5957 16.8064 18.9725 17.3481C19.361 17.8897 19.5553 18.5844 19.5553 19.4322C19.5553 20.1387 19.3905 20.7687 19.0608 21.3221C18.7429 21.8755 18.266 22.3112 17.6301 22.6291C17.0061 22.9352 16.2525 23.0883 15.3694 23.0883C14.0388 23.0883 12.9555 22.7527 12.1195 22.0816C11.2835 21.4104 10.8419 20.4213 10.7948 19.1143H13.1969C13.2204 19.6913 13.4147 20.1564 13.7797 20.5096C14.1565 20.8511 14.6687 21.0218 15.3164 21.0218C15.9169 21.0218 16.3761 20.857 16.694 20.5273C17.0237 20.1858 17.1886 19.7501 17.1886 19.2203C17.1886 18.5138 16.9648 18.0074 16.5174 17.7013C16.07 17.3952 15.3752 17.2421 14.4332 17.2421H13.921V15.2109H14.4332C16.1053 15.2109 16.9413 14.6516 16.9413 13.533C16.9413 13.0267 16.7882 12.6322 16.4821 12.3496C16.1877 12.067 15.7579 11.9257 15.1927 11.9257C14.6393 11.9257 14.2095 12.0788 13.9034 12.3849C13.609 12.6793 13.4383 13.0561 13.3912 13.5153H10.9714Z" fill="white"/>
<defs>
<linearGradient id="paint0_linear_22_30" x1="255.974" y1="69.3031" x2="260.669" y2="69.1171" gradientUnits="userSpaceOnUse">
<stop stop-color="#410DFF"/>
<stop offset="0.45" stop-color="#D900D5"/>
<stop offset="0.75" stop-color="#FF5E4F"/>
<stop offset="1" stop-color="#FFCD9E"/>
</linearGradient>
<linearGradient id="paint1_linear_22_30" x1="314.974" y1="37.1629" x2="319.624" y2="36.6679" gradientUnits="userSpaceOnUse">
<stop stop-color="#410DFF"/>
<stop offset="0.45" stop-color="#D900D5"/>
<stop offset="0.75" stop-color="#FF5E4F"/>
<stop offset="1" stop-color="#FFCD9E"/>
</linearGradient>
<linearGradient id="paint2_linear_22_30" x1="3.57876" y1="39.4216" x2="42.8424" y2="17.1314" gradientUnits="userSpaceOnUse">
<stop stop-color="#410DFF"/>
<stop offset="0.45" stop-color="#D900D5"/>
<stop offset="0.75" stop-color="#FF5E4F"/>
<stop offset="1" stop-color="#FFCD9E"/>
</linearGradient>
<linearGradient id="paint3_linear_22_30" x1="30.9736" y1="267.535" x2="35.6764" y2="267.497" gradientUnits="userSpaceOnUse">
<stop stop-color="#410DFF"/>
<stop offset="0.45" stop-color="#D900D5"/>
<stop offset="0.75" stop-color="#FF5E4F"/>
<stop offset="1" stop-color="#FFCD9E"/>
</linearGradient>
</defs>
</svg>
