<svg width="331" height="34" viewBox="0 0 331 34" fill="none" xmlns="http://www.w3.org/2000/svg">
<rect x="255.649" y="18.1169" width="3" height="43" rx="1.5" transform="rotate(-90 255.649 18.1169)" fill="url(#paint0_linear_22_37)"/>
<rect x="314.649" y="18.1169" width="3" height="16" rx="1.5" transform="rotate(-90 314.649 18.1169)" fill="url(#paint1_linear_22_37)"/>
<circle cx="16.5584" cy="16.5584" r="16.5584" transform="rotate(-90 16.5584 16.5584)" fill="url(#paint2_linear_22_37)"/>
<rect x="30.6494" y="18.7466" width="3" height="209" rx="1.5" transform="rotate(-90 30.6494 18.7466)" fill="url(#paint3_linear_22_37)"/>
<path d="M10.8301 20.4919V18.5491L16.6057 10.2831H19.4847V18.3371H21.039V20.4919H19.4847V23H17.0119V20.4919H10.8301ZM17.1709 12.9325L13.5501 18.3371H17.1709V12.9325Z" fill="white"/>
<defs>
<linearGradient id="paint0_linear_22_37" x1="255.974" y1="69.3031" x2="260.669" y2="69.1171" gradientUnits="userSpaceOnUse">
<stop stop-color="#410DFF"/>
<stop offset="0.45" stop-color="#D900D5"/>
<stop offset="0.75" stop-color="#FF5E4F"/>
<stop offset="1" stop-color="#FFCD9E"/>
</linearGradient>
<linearGradient id="paint1_linear_22_37" x1="314.974" y1="37.1629" x2="319.624" y2="36.6679" gradientUnits="userSpaceOnUse">
<stop stop-color="#410DFF"/>
<stop offset="0.45" stop-color="#D900D5"/>
<stop offset="0.75" stop-color="#FF5E4F"/>
<stop offset="1" stop-color="#FFCD9E"/>
</linearGradient>
<linearGradient id="paint2_linear_22_37" x1="3.57876" y1="39.4216" x2="42.8424" y2="17.1314" gradientUnits="userSpaceOnUse">
<stop stop-color="#410DFF"/>
<stop offset="0.45" stop-color="#D900D5"/>
<stop offset="0.75" stop-color="#FF5E4F"/>
<stop offset="1" stop-color="#FFCD9E"/>
</linearGradient>
<linearGradient id="paint3_linear_22_37" x1="30.9736" y1="267.535" x2="35.6764" y2="267.497" gradientUnits="userSpaceOnUse">
<stop stop-color="#410DFF"/>
<stop offset="0.45" stop-color="#D900D5"/>
<stop offset="0.75" stop-color="#FF5E4F"/>
<stop offset="1" stop-color="#FFCD9E"/>
</linearGradient>
</defs>
</svg>
