<svg width="34" height="246" viewBox="0 0 34 246" fill="none" xmlns="http://www.w3.org/2000/svg">
<rect x="15" y="192" width="3" height="31" rx="1.5" fill="url(#paint0_linear_23_179)"/>
<rect x="15" y="235" width="3" height="11" rx="1.5" fill="url(#paint1_linear_23_179)"/>
<rect x="14" y="31" width="3" height="150" rx="1.5" fill="url(#paint2_linear_23_179)"/>
<circle cx="16.5584" cy="16.5584" r="16.5584" fill="url(#paint3_linear_23_179)"/>
<path d="M13.2132 19.6249C14.3436 18.6829 15.2444 17.8999 15.9156 17.2758C16.5868 16.6399 17.1461 15.9805 17.5935 15.2976C18.041 14.6147 18.2647 13.9435 18.2647 13.2841C18.2647 12.6836 18.1234 12.2126 17.8408 11.8711C17.5582 11.5296 17.1225 11.3589 16.5338 11.3589C15.945 11.3589 15.4917 11.5591 15.1738 11.9594C14.8558 12.348 14.691 12.8838 14.6792 13.5667H12.2771C12.3242 12.1537 12.7423 11.0822 13.5312 10.3521C14.3319 9.62211 15.3445 9.25708 16.5691 9.25708C17.9114 9.25708 18.9417 9.61622 19.66 10.3345C20.3783 11.041 20.7374 11.9771 20.7374 13.1428C20.7374 14.0612 20.4901 14.9385 19.9956 15.7745C19.501 16.6105 18.9358 17.3405 18.3 17.9646C17.6642 18.5769 16.834 19.3187 15.8096 20.1901L21.02 20.1901V22.2389L12.2948 22.2389V20.402L13.2132 19.6249Z" fill="white"/>
<defs>
<linearGradient id="paint0_linear_23_179" x1="15.3242" y1="228.902" x2="20.0132" y2="228.644" gradientUnits="userSpaceOnUse">
<stop stop-color="#410DFF"/>
<stop offset="0.45" stop-color="#D900D5"/>
<stop offset="0.75" stop-color="#FF5E4F"/>
<stop offset="1" stop-color="#FFCD9E"/>
</linearGradient>
<linearGradient id="paint1_linear_23_179" x1="15.3242" y1="248.094" x2="19.9172" y2="247.383" gradientUnits="userSpaceOnUse">
<stop stop-color="#410DFF"/>
<stop offset="0.45" stop-color="#D900D5"/>
<stop offset="0.75" stop-color="#FF5E4F"/>
<stop offset="1" stop-color="#FFCD9E"/>
</linearGradient>
<linearGradient id="paint2_linear_23_179" x1="14.3242" y1="209.556" x2="19.0267" y2="209.503" gradientUnits="userSpaceOnUse">
<stop stop-color="#410DFF"/>
<stop offset="0.45" stop-color="#D900D5"/>
<stop offset="0.75" stop-color="#FF5E4F"/>
<stop offset="1" stop-color="#FFCD9E"/>
</linearGradient>
<linearGradient id="paint3_linear_23_179" x1="3.57876" y1="39.4216" x2="42.8424" y2="17.1314" gradientUnits="userSpaceOnUse">
<stop stop-color="#410DFF"/>
<stop offset="0.45" stop-color="#D900D5"/>
<stop offset="0.75" stop-color="#FF5E4F"/>
<stop offset="1" stop-color="#FFCD9E"/>
</linearGradient>
</defs>
</svg>
