<svg width="34" height="246" viewBox="0 0 34 246" fill="none" xmlns="http://www.w3.org/2000/svg">
<rect x="15" y="192" width="3" height="31" rx="1.5" fill="url(#paint0_linear_23_215)"/>
<rect x="15" y="235" width="3" height="11" rx="1.5" fill="url(#paint1_linear_23_215)"/>
<rect x="14" y="31" width="3" height="150" rx="1.5" fill="url(#paint2_linear_23_215)"/>
<circle cx="16.5584" cy="16.5584" r="16.5584" fill="url(#paint3_linear_23_215)"/>
<path d="M12.4714 12.9309C12.5303 11.7534 12.9424 10.8467 13.7078 10.2109C14.4849 9.56323 15.5035 9.23942 16.7634 9.23942C17.6229 9.23942 18.3589 9.3925 18.9712 9.69864C19.5835 9.99302 20.0427 10.3992 20.3488 10.9173C20.6668 11.4237 20.8257 12.0006 20.8257 12.6483C20.8257 13.3901 20.6314 14.02 20.2429 14.5381C19.8661 15.0444 19.4127 15.3859 18.8829 15.5625V15.6332C19.5658 15.8451 20.0957 16.2219 20.4725 16.7636C20.861 17.3052 21.0553 17.9999 21.0553 18.8477C21.0553 19.5542 20.8905 20.1842 20.5608 20.7376C20.2429 21.291 19.766 21.7267 19.1301 22.0446C18.5061 22.3508 17.7525 22.5038 16.8694 22.5038C15.5388 22.5038 14.4555 22.1683 13.6195 21.4971C12.7835 20.8259 12.3419 19.8368 12.2948 18.5298H14.6969C14.7204 19.1068 14.9147 19.5719 15.2797 19.9251C15.6565 20.2666 16.1687 20.4373 16.8164 20.4373C17.4169 20.4373 17.8761 20.2725 18.194 19.9428C18.5237 19.6013 18.6886 19.1657 18.6886 18.6358C18.6886 17.9293 18.4648 17.423 18.0174 17.1168C17.57 16.8107 16.8752 16.6576 15.9332 16.6576H15.421L15.421 14.6264H15.9332C17.6053 14.6264 18.4413 14.0671 18.4413 12.9485C18.4413 12.4422 18.2882 12.0477 17.9821 11.7651C17.6877 11.4825 17.2579 11.3412 16.6927 11.3412C16.1393 11.3412 15.7095 11.4943 15.4034 11.8005C15.109 12.0948 14.9383 12.4716 14.8912 12.9309H12.4714Z" fill="white"/>
<defs>
<linearGradient id="paint0_linear_23_215" x1="15.3242" y1="228.902" x2="20.0132" y2="228.644" gradientUnits="userSpaceOnUse">
<stop stop-color="#410DFF"/>
<stop offset="0.45" stop-color="#D900D5"/>
<stop offset="0.75" stop-color="#FF5E4F"/>
<stop offset="1" stop-color="#FFCD9E"/>
</linearGradient>
<linearGradient id="paint1_linear_23_215" x1="15.3242" y1="248.094" x2="19.9172" y2="247.383" gradientUnits="userSpaceOnUse">
<stop stop-color="#410DFF"/>
<stop offset="0.45" stop-color="#D900D5"/>
<stop offset="0.75" stop-color="#FF5E4F"/>
<stop offset="1" stop-color="#FFCD9E"/>
</linearGradient>
<linearGradient id="paint2_linear_23_215" x1="14.3242" y1="209.556" x2="19.0267" y2="209.503" gradientUnits="userSpaceOnUse">
<stop stop-color="#410DFF"/>
<stop offset="0.45" stop-color="#D900D5"/>
<stop offset="0.75" stop-color="#FF5E4F"/>
<stop offset="1" stop-color="#FFCD9E"/>
</linearGradient>
<linearGradient id="paint3_linear_23_215" x1="3.57876" y1="39.4216" x2="42.8424" y2="17.1314" gradientUnits="userSpaceOnUse">
<stop stop-color="#410DFF"/>
<stop offset="0.45" stop-color="#D900D5"/>
<stop offset="0.75" stop-color="#FF5E4F"/>
<stop offset="1" stop-color="#FFCD9E"/>
</linearGradient>
</defs>
</svg>
