<svg width="34" height="246" viewBox="0 0 34 246" fill="none" xmlns="http://www.w3.org/2000/svg">
<rect x="15" y="192" width="3" height="31" rx="1.5" fill="url(#paint0_linear_23_235)"/>
<rect x="15" y="235" width="3" height="11" rx="1.5" fill="url(#paint1_linear_23_235)"/>
<rect x="14" y="31" width="3" height="150" rx="1.5" fill="url(#paint2_linear_23_235)"/>
<circle cx="16.5584" cy="16.5584" r="16.5584" fill="url(#paint3_linear_23_235)"/>
<path d="M20.0907 11.6768L14.3681 11.6768V14.6971C14.6153 14.3909 14.9686 14.1437 15.4278 13.9553C15.887 13.7551 16.3757 13.655 16.8938 13.655C17.8358 13.655 18.607 13.8611 19.2075 14.2732C19.8081 14.6853 20.2437 15.2152 20.5145 15.8628C20.7854 16.4986 20.9208 17.1816 20.9208 17.9116C20.9208 19.2657 20.5322 20.3549 19.7551 21.1792C18.9897 22.0034 17.8946 22.4155 16.4699 22.4155C15.1275 22.4155 14.056 22.0799 13.2553 21.4088C12.4546 20.7376 12.0013 19.8604 11.8953 18.7771H14.2974C14.4034 19.2481 14.6389 19.6249 15.0039 19.9075C15.3807 20.1901 15.8576 20.3314 16.4345 20.3314C17.1293 20.3314 17.6532 20.1135 18.0065 19.6779C18.3597 19.2422 18.5364 18.6652 18.5364 17.947C18.5364 17.2169 18.3539 16.6635 17.9888 16.2867C17.6356 15.8981 17.1116 15.7038 16.4169 15.7038C15.9223 15.7038 15.5102 15.8275 15.1805 16.0747C14.8508 16.322 14.6153 16.6517 14.474 17.0638H12.1073L12.1073 9.50436L20.0907 9.50436V11.6768Z" fill="white"/>
<defs>
<linearGradient id="paint0_linear_23_235" x1="15.3242" y1="228.902" x2="20.0132" y2="228.644" gradientUnits="userSpaceOnUse">
<stop stop-color="#410DFF"/>
<stop offset="0.45" stop-color="#D900D5"/>
<stop offset="0.75" stop-color="#FF5E4F"/>
<stop offset="1" stop-color="#FFCD9E"/>
</linearGradient>
<linearGradient id="paint1_linear_23_235" x1="15.3242" y1="248.094" x2="19.9172" y2="247.383" gradientUnits="userSpaceOnUse">
<stop stop-color="#410DFF"/>
<stop offset="0.45" stop-color="#D900D5"/>
<stop offset="0.75" stop-color="#FF5E4F"/>
<stop offset="1" stop-color="#FFCD9E"/>
</linearGradient>
<linearGradient id="paint2_linear_23_235" x1="14.3242" y1="209.556" x2="19.0267" y2="209.503" gradientUnits="userSpaceOnUse">
<stop stop-color="#410DFF"/>
<stop offset="0.45" stop-color="#D900D5"/>
<stop offset="0.75" stop-color="#FF5E4F"/>
<stop offset="1" stop-color="#FFCD9E"/>
</linearGradient>
<linearGradient id="paint3_linear_23_235" x1="3.57876" y1="39.4216" x2="42.8424" y2="17.1314" gradientUnits="userSpaceOnUse">
<stop stop-color="#410DFF"/>
<stop offset="0.45" stop-color="#D900D5"/>
<stop offset="0.75" stop-color="#FF5E4F"/>
<stop offset="1" stop-color="#FFCD9E"/>
</linearGradient>
</defs>
</svg>
