<svg width="43" height="47" viewBox="0 0 43 47" fill="none" xmlns="http://www.w3.org/2000/svg">
<path d="M36.3924 23.3702V10.0107C36.3924 9.67062 36.2574 9.34449 36.0169 9.10401L29.2883 2.37556C29.0479 2.13508 28.7218 2 28.3818 2H3.48229C2.77414 2 2.20007 2.57407 2.20007 3.28221V43.4582C2.20007 44.1664 2.77414 44.7404 3.48229 44.7404H17.1592" stroke="#F13D7D" stroke-width="3.20553" stroke-linecap="round" stroke-linejoin="round"/>
<path d="M10.7479 27.6443H17.159M10.7479 19.0962H27.8441H10.7479ZM10.7479 10.5481H19.296H10.7479Z" stroke="#F13D7D" stroke-width="3.20553" stroke-linecap="round" stroke-linejoin="round"/>
<path d="M37.4607 41.5347L40.6662 44.7402" stroke="#F13D7D" stroke-width="3.20553" stroke-linecap="round" stroke-linejoin="round"/>
<path d="M25.7073 36.1923C25.7073 39.7331 28.5775 42.6034 32.1183 42.6034C33.8919 42.6034 35.497 41.8832 36.6576 40.7196C37.8144 39.5598 38.5294 37.9596 38.5294 36.1923C38.5294 32.6515 35.6592 29.7812 32.1183 29.7812C28.5775 29.7812 25.7073 32.6515 25.7073 36.1923Z" stroke="#F13D7D" stroke-width="3.20553" stroke-linecap="round" stroke-linejoin="round"/>
<path d="M27.8441 9.26587V2.75554C27.8441 2.33827 28.1824 2 28.5998 2C28.8 2 28.9921 2.0796 29.134 2.22129L36.1708 9.25829C36.3127 9.39997 36.3922 9.59215 36.3922 9.79254C36.3922 10.2098 36.0539 10.5481 35.6366 10.5481H29.1263C28.4181 10.5481 27.8441 9.97402 27.8441 9.26587Z" fill="#F13D7D" stroke="#F13D7D" stroke-width="3.20553" stroke-linecap="round" stroke-linejoin="round"/>
</svg>
