<svg width="48" height="43" viewBox="0 0 48 43" fill="none" xmlns="http://www.w3.org/2000/svg">
<path d="M2.2002 36.5923V34.4552C2.2002 26.1935 8.89764 19.4961 17.1593 19.4961" stroke="#F13D7D" stroke-width="3.20553" stroke-linecap="round" stroke-linejoin="round"/>
<path d="M31.6994 20.1661C33.0709 18.6601 35.4405 18.6601 36.812 20.1661C37.5053 20.9273 38.5015 21.34 39.5299 21.2919C41.5645 21.1968 43.2402 22.8724 43.1451 24.9071C43.097 25.9354 43.5096 26.9317 44.2709 27.6249C45.7768 28.9965 45.7768 31.366 44.2709 32.7375C43.5096 33.4308 43.097 34.4271 43.1451 35.4554C43.2402 37.4901 41.5645 39.1657 39.5299 39.0706C38.5015 39.0225 37.5053 39.4352 36.812 40.1964C35.4405 41.7023 33.0709 41.7023 31.6994 40.1964C31.0061 39.4352 30.0099 39.0225 28.9815 39.0706C26.9469 39.1657 25.2712 37.4901 25.3663 35.4554C25.4144 34.4271 25.0018 33.4308 24.2406 32.7375C22.7346 31.366 22.7346 28.9965 24.2406 27.6249C25.0018 26.9317 25.4144 25.9354 25.3663 24.9071C25.2712 22.8724 26.9469 21.1968 28.9815 21.2919C30.0099 21.34 31.0061 20.9273 31.6994 20.1661Z" stroke="#F13D7D" stroke-width="3.20553"/>
<path d="M30.7585 30.1814L33.09 32.5127L37.7526 27.8501" stroke="#F13D7D" stroke-width="3.20553" stroke-linecap="round" stroke-linejoin="round"/>
<path d="M17.1597 19.4963C21.8805 19.4963 25.7077 15.6691 25.7077 10.9482C25.7077 6.22725 21.8805 2.40015 17.1597 2.40015C12.4387 2.40015 8.61157 6.22725 8.61157 10.9482C8.61157 15.6691 12.4387 19.4963 17.1597 19.4963Z" stroke="#F13D7D" stroke-width="3.20553" stroke-linecap="round" stroke-linejoin="round"/>
</svg>
