<svg width="696" height="316" viewBox="0 0 696 316" fill="none" xmlns="http://www.w3.org/2000/svg">
<path d="M87.7126 0C89.7153 0 91.2809 0.731136 92.3935 2.20135C93.514 3.66363 94.0544 5.30868 94.0147 7.12063C93.975 8.93257 93.22 10.5935 91.7577 12.0955C90.2954 13.5975 87.9749 14.3923 84.8199 14.4638H67.4713L40.2921 91.7178C39.4418 94.2609 37.8841 96.0331 35.6033 97.0344C33.3304 98.0358 31.0734 98.3219 28.8403 97.9007C26.5992 97.4795 24.7952 96.3748 23.4045 94.6026C22.0137 92.8304 21.823 90.4383 22.8243 87.4343L48.3902 14.4558H28.9595C26.7979 14.4558 25.121 13.7008 23.929 12.1988C22.729 10.6968 22.1727 9.05973 22.2521 7.27957C22.3316 5.50736 23.1184 3.87025 24.6204 2.3603C26.1224 0.850343 28.4509 0.0794713 31.6138 0H87.7126Z" fill="url(#paint0_linear_18_25996)"/>
<path d="M218.872 66.4538C217.409 63.3306 215.86 60.4219 214.247 57.7199C213.086 55.7172 212.005 53.7463 211.004 51.8231C210.003 49.8999 209.391 48.0482 209.152 46.2681C210.694 45.6562 211.942 44.6866 212.911 43.3753C213.873 42.072 214.509 40.6018 214.819 38.9806C214.97 37.7408 214.898 36.517 214.58 35.2772C214.27 34.0454 213.77 32.9487 213.07 31.9791C212.379 31.0175 211.497 30.1831 210.408 29.4996C209.327 28.8003 208.167 28.3394 206.943 28.1089V28.2202C206.093 28.0692 205.306 28.0374 204.567 28.1089C203.836 28.1884 203.121 28.2996 202.429 28.4506C201.118 28.7606 199.767 29.4202 198.384 30.4215C196.993 31.4228 195.642 32.8851 194.339 34.8163C192.098 39.211 189.785 43.6058 187.401 48.0006C185.2 52.0456 183.022 56.0907 180.9 60.1438C180.718 60.4855 180.527 60.8431 180.344 61.1848C178.81 61.5583 177.427 62.1782 176.188 63.0604C175.87 63.2908 175.56 63.5292 175.25 63.7915C173.788 65.063 172.572 66.5412 171.61 68.2419C170.649 69.9346 169.933 71.7466 169.472 73.6777C169.131 75.1003 168.916 76.5069 168.837 77.8817C168.121 78.9149 167.406 79.8288 166.699 80.6156C165.308 82.1573 163.965 83.254 162.654 83.9057C161.342 84.5653 160.103 84.8911 158.95 84.8911C157.639 84.8911 156.574 84.5097 155.772 83.7388C154.961 82.9679 154.564 82.0381 154.564 80.9652C154.564 80.4248 154.675 79.805 154.905 79.1136L167.629 42.8031C168.63 39.4892 168.551 36.8031 167.398 34.7606C166.238 32.7182 164.656 31.4626 162.654 31.0016C160.651 30.5407 158.545 30.9222 156.352 32.1619C154.158 33.4017 152.513 35.5951 151.44 38.7501C150.518 41.4521 149.533 44.329 148.484 47.3727C147.443 50.4165 146.378 53.4682 145.305 56.5119C144.232 59.5557 143.167 62.5756 142.126 65.5875C141.085 68.5916 140.1 71.4446 139.17 74.1466C139.122 74.3135 139.059 74.4804 139.011 74.6552C137.716 76.9201 136.373 78.7798 134.958 80.2261C131.906 83.3494 129.077 84.907 126.455 84.907C125.374 84.907 124.508 84.6209 123.856 84.0408C123.204 83.4606 122.87 82.7533 122.87 81.903C122.87 81.3626 122.99 80.8619 123.212 80.393L132.701 53.5635C133.392 51.4019 133.734 49.3198 133.734 47.3171C133.734 45.0045 133.313 42.8429 132.463 40.8402C131.612 38.8375 130.444 37.0971 128.934 35.6348C127.424 34.1726 125.652 33.0202 123.61 32.1699C121.575 31.3195 119.398 30.8983 117.077 30.8983C114.454 30.8983 111.983 31.3911 109.67 32.3924L115.917 14.114C116.839 11.8809 117.188 9.87023 116.958 8.10597C116.727 6.33376 116.163 4.88739 115.281 3.76684C114.391 2.6463 113.254 1.88337 111.864 1.45423C110.473 1.03303 109.042 1.03303 107.58 1.45423C106.118 1.88337 104.727 2.7814 103.424 4.17214C102.113 5.56289 101.071 7.4861 100.293 9.94971L73.2327 85.7176C72.0724 88.9521 72.0406 91.678 73.1135 93.8714C74.1943 96.0648 75.6963 97.5112 77.6195 98.2026C79.5427 98.9019 81.593 98.7668 83.7547 97.7972C85.9083 96.8277 87.5693 94.8091 88.7296 91.7256L102.605 52.7529C103.845 50.5118 105.363 48.6602 107.175 47.1979C108.995 45.7356 110.783 45.0045 112.563 45.0045C113.715 45.0045 114.661 45.3701 115.392 46.1012C116.123 46.8403 116.497 47.7383 116.497 48.8191C116.497 49.59 116.346 50.2893 116.036 50.9092L107.707 74.6155V74.4963C106.785 77.2698 106.317 79.8129 106.317 82.1255C106.317 84.8275 106.857 87.2196 107.938 89.3018C109.019 91.3839 110.433 93.1164 112.213 94.4992C113.993 95.882 116.02 96.931 118.285 97.6224C120.558 98.3218 122.926 98.6635 125.398 98.6635C128.171 98.6635 131.008 98.1867 133.901 97.2171C136.643 96.3111 139.329 94.7694 141.959 92.5998C142.468 93.1561 143.016 93.6806 143.62 94.1575C145.432 95.6197 147.507 96.7403 149.867 97.5111C152.211 98.2741 154.738 98.6635 157.44 98.6635C160.293 98.6635 163.17 98.1867 166.055 97.2171C168.932 96.2635 171.745 94.6104 174.503 92.2343C174.988 92.719 175.52 93.1879 176.068 93.633C178.302 95.4449 180.908 96.8913 183.865 97.9721C186.837 99.0529 189.984 99.6648 193.298 99.8238C195.301 100.054 197.883 99.9191 201.046 99.4185C204.209 98.9098 207.269 97.7972 210.241 96.0648C213.205 94.3323 215.749 91.8607 217.87 88.658C219.992 85.4554 221.049 81.3149 221.049 76.2208C221.049 72.8274 220.318 69.577 218.856 66.4538H218.872ZM202.675 79.6937C202.064 81.7758 200.999 83.3335 199.497 84.3745C198.003 85.4156 196.238 85.9799 194.236 86.0593C192.225 86.0593 190.429 85.654 188.855 84.8355C187.274 84.0249 186.169 82.8566 185.557 81.307C188.482 81.9268 190.993 81.6169 193.067 80.3851C195.157 79.1533 196.675 77.5162 197.637 75.4738C198.607 73.4314 198.964 71.23 198.742 68.8777C198.503 66.5332 197.581 64.5465 195.968 62.9173L197.009 60.7239C199.163 63.3465 200.879 66.3505 202.151 69.7439C203.43 73.1453 203.597 76.4592 202.675 79.6937V79.6937Z" fill="url(#paint1_linear_18_25996)"/>
<path d="M179.089 60.724C177.904 61.2167 176.935 62.0035 176.204 63.0604C177.443 62.1783 178.826 61.5505 180.36 61.1849C180.543 60.8432 180.734 60.4856 180.916 60.1438C180.312 60.2789 179.708 60.4697 179.089 60.724V60.724ZM177.237 3.87817C175.385 2.06622 173.144 1.16025 170.529 1.16025C167.915 1.16025 165.666 2.06622 163.814 3.87817C161.97 5.69011 161.049 7.90736 161.049 10.522C161.049 13.1366 161.97 15.4969 163.814 17.3485C165.666 19.2002 167.907 20.1221 170.529 20.1221C173.152 20.1221 175.385 19.2002 177.237 17.3485C179.089 15.4969 180.01 13.224 180.01 10.522C180.01 7.81994 179.089 5.68216 177.237 3.87817V3.87817Z" fill="url(#paint2_linear_18_25996)"/>
<path d="M303.072 3.87817C301.22 2.06622 298.979 1.16025 296.364 1.16025C293.75 1.16025 291.509 2.06622 289.657 3.87817C287.805 5.69011 286.883 7.90736 286.883 10.522C286.883 13.1366 287.805 15.4969 289.657 17.3485C291.509 19.2002 293.734 20.1221 296.364 20.1221C298.995 20.1221 301.22 19.2002 303.072 17.3485C304.923 15.4969 305.845 13.224 305.845 10.522C305.845 7.81994 304.923 5.68216 303.072 3.87817V3.87817ZM304.923 60.724C303.739 61.2167 302.77 62.0035 302.031 63.0684C303.278 62.1783 304.661 61.5505 306.203 61.1849C306.386 60.8432 306.568 60.4856 306.751 60.1438C306.147 60.2789 305.543 60.4697 304.923 60.724Z" fill="url(#paint3_linear_18_25996)"/>
<path d="M344.707 66.4538C343.244 63.3306 341.703 60.4219 340.082 57.7199C338.929 55.7172 337.84 53.7463 336.839 51.8231C335.838 49.8999 335.226 48.0482 334.987 46.2681C336.537 45.6562 337.777 44.6866 338.746 43.3753C339.716 42.072 340.344 40.6018 340.654 38.9806C340.805 37.7408 340.733 36.517 340.415 35.2772C340.113 34.0454 339.605 32.9487 338.921 31.9791C338.222 31.0175 337.34 30.1831 336.259 29.4996C335.17 28.8003 334.018 28.3394 332.786 28.1089V28.2202C331.936 28.0692 331.149 28.0374 330.41 28.1089C329.679 28.1884 328.971 28.2996 328.272 28.4506C326.961 28.7606 325.61 29.4202 324.227 30.4215C322.836 31.4228 321.493 32.8851 320.182 34.8163C317.941 39.211 315.628 43.6058 313.244 48.0006C311.043 52.0456 308.865 56.0907 306.743 60.1438C306.561 60.4855 306.378 60.8431 306.195 61.1848C304.653 61.5584 303.27 62.1782 302.023 63.0683C301.713 63.2908 301.403 63.5292 301.109 63.7915C299.639 65.063 298.423 66.5412 297.469 68.2419C296.499 69.9346 295.784 71.7466 295.323 73.6777C294.982 75.1003 294.767 76.5069 294.688 77.8818C293.972 78.9149 293.257 79.8288 292.55 80.6156C291.159 82.1573 289.816 83.254 288.505 83.9057C287.193 84.5653 285.962 84.8911 284.801 84.8911C283.49 84.8911 282.433 84.5097 281.622 83.7388C280.812 82.9679 280.414 82.0381 280.414 80.9652C280.414 80.4248 280.534 79.805 280.756 79.1136L293.48 42.8031C294.481 39.4892 294.401 36.8031 293.249 34.7606C292.089 32.7182 290.507 31.4626 288.505 31.0016C286.502 30.5407 284.396 30.9222 282.203 32.1619C280.009 33.4017 278.364 35.5951 277.291 38.7501C276.369 41.4521 275.384 44.329 274.335 47.3727C273.302 50.4165 272.229 53.4682 271.156 56.5119C270.075 59.5557 269.018 62.5756 267.977 65.5875C266.936 68.5916 265.959 71.4446 265.029 74.1466C264.639 75.2989 264.314 76.5784 264.043 77.9692C263.773 79.3599 263.638 80.552 263.638 81.5533C263.638 84.2554 264.163 86.6633 265.196 88.7773C266.237 90.8992 267.659 92.6873 269.479 94.1575C271.291 95.6198 273.373 96.7403 275.726 97.5112C278.078 98.2741 280.605 98.6635 283.307 98.6635C286.16 98.6635 289.029 98.1867 291.922 97.2171C294.791 96.2635 297.604 94.6105 300.362 92.2343C300.847 92.719 301.379 93.1879 301.927 93.633C304.168 95.4449 306.767 96.8913 309.731 97.9721C312.696 99.0529 315.843 99.6648 319.157 99.8238C321.159 100.054 323.742 99.9191 326.905 99.4185C330.068 98.9099 333.128 97.7973 336.1 96.0648C339.072 94.3323 341.607 91.8608 343.729 88.6581C345.851 85.4554 346.908 81.3149 346.908 76.2208C346.908 72.8274 346.177 69.577 344.715 66.4538H344.707ZM328.518 79.6937C327.899 81.7758 326.834 83.3335 325.34 84.3746C323.83 85.4156 322.073 85.9799 320.071 86.0594C318.068 86.0594 316.28 85.654 314.69 84.8355C313.109 84.0249 312.004 82.8567 311.392 81.307C314.317 81.9268 316.828 81.6169 318.91 80.3851C320.993 79.1533 322.51 77.5162 323.48 75.4738C324.442 73.4314 324.807 71.23 324.577 68.8777C324.346 66.5333 323.424 64.5465 321.803 62.9173L322.844 60.7239C324.998 63.3465 326.722 66.3505 327.994 69.7439C329.265 73.1453 329.44 76.4592 328.518 79.6937V79.6937Z" fill="url(#paint4_linear_18_25996)"/>
<path d="M414.808 176.776C413.719 175.345 412.337 174.4 410.644 173.939C408.943 173.478 407.195 173.597 405.375 174.281C403.563 174.98 402.315 176.371 401.624 178.445C400.154 182.148 398.382 185.295 396.299 187.878C394.217 190.461 392.024 192.559 389.711 194.18C387.399 195.793 385.022 196.97 382.591 197.709C380.167 198.44 377.87 198.813 375.708 198.813C371.703 198.813 368.524 197.812 366.164 195.801C363.82 193.799 362.635 191.335 362.635 188.403C362.635 187.163 362.866 185.78 363.327 184.238L370.503 164.116V164.227C371.043 162.765 371.806 161.629 372.816 160.818C373.817 160.007 374.818 159.642 375.82 159.713C377.592 159.872 378.641 160.683 378.943 162.145C379.253 163.608 378.863 165.34 377.791 167.351C376.63 169.663 376.551 171.761 377.552 173.653C378.553 175.536 380.04 176.832 382.01 177.523C383.973 178.222 386.087 178.087 388.368 177.118C390.641 176.156 392.429 173.979 393.748 170.585C394.98 167.112 395.425 163.838 395.076 160.747C394.734 157.671 393.764 154.921 392.183 152.537C390.601 150.153 388.519 148.254 385.936 146.863C383.354 145.48 380.477 144.781 377.322 144.781C374.85 144.781 372.41 145.123 369.979 145.822C367.547 146.513 365.274 147.57 363.152 149.001C361.03 150.423 359.107 152.259 357.374 154.492C355.634 156.733 354.259 159.348 353.266 162.352L346.67 181.791C345.923 184.032 345.485 186.217 345.342 188.347C345.303 188.411 345.263 188.49 345.223 188.554C343.793 191.057 342.386 193.091 341.003 194.625C339.613 196.167 338.269 197.264 336.958 197.923C335.647 198.583 334.415 198.901 333.255 198.901C331.944 198.901 330.895 198.519 330.076 197.748C329.265 196.978 328.868 196.056 328.868 194.975C328.868 194.434 328.987 193.823 329.21 193.123L341.933 156.813C342.934 153.499 342.855 150.813 341.703 148.77C340.542 146.736 338.961 145.48 336.958 145.011C334.956 144.55 332.85 144.932 330.656 146.172C328.463 147.411 326.818 149.605 325.745 152.768C324.823 155.462 323.837 158.339 322.788 161.382C321.755 164.426 320.682 167.478 319.61 170.522C318.529 173.565 317.472 176.585 316.431 179.597C315.39 182.601 314.412 185.454 313.482 188.156C313.427 188.315 313.371 188.482 313.331 188.649H313.323C312.028 190.922 310.677 192.781 309.262 194.228C306.219 197.351 303.382 198.909 300.767 198.909C299.678 198.909 298.812 198.623 298.16 198.042C297.501 197.47 297.175 196.755 297.175 195.905C297.175 195.364 297.294 194.864 297.525 194.395L307.005 167.565C307.697 165.412 308.047 163.321 308.047 161.319C308.047 159.006 307.617 156.845 306.767 154.842C305.917 152.839 304.748 151.107 303.239 149.636C301.729 148.174 299.956 147.022 297.922 146.172C295.879 145.321 293.702 144.9 291.381 144.9C288.759 144.9 286.287 145.393 283.975 146.394L290.229 128.132C291.151 125.89 291.501 123.888 291.262 122.116C291.032 120.343 290.468 118.897 289.585 117.776C288.695 116.656 287.559 115.893 286.168 115.464C284.777 115.043 283.355 115.043 281.893 115.464C280.43 115.893 279.04 116.791 277.728 118.182C276.417 119.572 275.376 121.496 274.605 123.967L252.814 184.961C251.415 187.298 249.794 189.356 247.942 191.113C244.748 194.156 241.132 196.413 237.134 197.876C237.436 197.264 237.659 196.795 237.762 196.485C237.881 196.175 238.016 195.825 238.167 195.444C239.789 191.049 241.434 186.519 243.087 181.854C244.748 177.181 246.385 172.62 247.998 168.145C248.689 166.222 249.039 164.212 249.039 162.129C249.039 159.817 248.594 157.599 247.712 155.486C246.822 153.364 245.606 151.528 244.072 149.994C242.522 148.444 240.734 147.221 238.684 146.291C236.642 145.369 234.504 144.9 232.263 144.9C230.721 144.9 229.108 145.051 227.407 145.361C225.706 145.663 224.212 146.362 222.901 147.443C222.98 146.593 222.671 145.814 221.979 145.067C221.288 144.336 220.398 143.74 219.317 143.271C218.228 142.81 217.004 142.564 215.614 142.524C214.223 142.484 212.896 142.675 211.624 143.104C210.345 143.525 209.192 144.256 208.151 145.297C207.118 146.338 206.355 147.705 205.894 149.406L191.875 189.046H191.868C190.453 191.486 188.991 193.409 187.505 194.864C184.739 197.566 182.037 198.909 179.414 198.909C177.332 198.909 176.291 197.947 176.291 196.024C176.291 195.174 176.482 194.053 176.871 192.67L189.817 155.66C190.818 152.736 190.818 150.36 189.817 148.548C188.816 146.736 187.393 145.488 185.542 144.789C183.69 144.089 181.663 143.994 179.47 144.503C177.277 144.995 175.481 146.1 174.09 147.793C172.929 147.03 171.237 146.235 168.996 145.432C166.755 144.614 164.021 144.209 160.786 144.209C156.932 144.209 153.213 145.297 149.621 147.451C146.036 149.613 143.398 152.887 141.705 157.29L130.834 187.942C130.444 189.022 130.15 190.064 129.967 191.065C129.936 191.224 129.912 191.383 129.88 191.542C129.467 192.162 129.045 192.766 128.624 193.314C127.313 195.046 126.01 196.421 124.698 197.423C123.387 198.424 122.116 198.917 120.876 198.917C120.025 198.917 119.414 198.631 119.024 198.05C118.635 197.478 118.452 196.763 118.452 195.913C118.452 195.062 118.603 194.22 118.913 193.37L125.739 174.4C126.121 173.247 126.415 172.143 126.606 171.102C126.796 170.069 126.892 169.043 126.892 168.042C126.892 165.268 126.145 162.892 124.635 160.929C123.125 158.958 121.305 157.29 119.143 155.899C116.99 154.508 114.749 153.372 112.436 152.482C110.123 151.599 108.152 150.924 106.539 150.463C107.08 148.842 107.167 147.284 106.825 145.774C106.484 144.264 105.84 142.921 104.918 141.729C103.996 140.537 102.836 139.567 101.453 138.836C100.062 138.105 98.6 137.732 97.0583 137.732C94.6582 137.732 92.5999 138.391 90.8675 139.703C89.135 141.014 87.9588 142.715 87.3389 144.797C86.9495 145.647 86.6634 146.569 86.4727 147.57C86.282 148.572 86.1787 149.493 86.1787 150.344C86.1787 153.419 87.1482 156.169 89.0714 158.553L81.9905 177.666C81.7442 178.151 81.5296 178.683 81.323 179.247C79.2408 185.184 76.3322 190.008 72.5891 193.711C68.8539 197.415 64.7055 200.419 60.1518 202.731L73.2248 168.837C73.8368 167.072 74.3215 165.388 74.6712 163.806C75.0129 162.233 75.0765 160.818 74.8381 159.594C74.6076 158.354 74.0672 157.298 73.2248 156.415C72.3745 155.525 71.0314 154.85 69.1798 154.389C66.9387 153.848 65.1665 153.793 63.8552 154.214C62.5439 154.643 61.4313 155.494 60.5094 156.765C59.5876 158.037 58.7531 159.634 58.022 161.557C57.2908 163.48 56.4246 165.69 55.4233 168.153C54.5729 170.545 53.6511 173.263 52.6497 176.307C51.6484 179.351 50.7265 182.029 49.8762 184.342C48.3344 188.434 46.1569 191.446 43.3357 193.37C40.5224 195.293 37.272 196.254 33.5687 196.254C30.8666 196.254 28.7448 195.507 27.211 193.997C25.6613 192.503 24.8984 190.469 24.8984 187.934C24.8984 186.082 25.3195 183.96 26.1699 181.568L39.4734 144.089C40.2363 141.936 41.2218 140.1 42.4218 138.606C43.6138 137.096 44.8854 135.888 46.2443 134.966C47.5874 134.044 48.9464 133.361 50.2894 132.94C51.6325 132.518 52.8881 132.304 54.0484 132.304C55.3517 132.391 56.4246 132.63 57.2273 133.059C58.0379 133.48 58.6498 134.004 59.079 134.616C59.5001 135.236 59.7862 135.896 59.9452 136.587C60.0962 137.279 60.2472 137.899 60.4061 138.439C60.2472 140.14 60.5968 141.618 61.4472 142.889C62.2896 144.161 63.3942 145.17 64.7373 145.901C66.0883 146.632 67.5903 147.054 69.2433 147.173C70.9043 147.292 72.446 147.022 73.8686 146.362C75.299 145.703 76.5388 144.606 77.5719 143.064C78.613 141.522 79.1693 139.48 79.2567 136.929C79.4077 133.925 78.8832 131.032 77.6911 128.251C76.4991 125.477 74.7984 123.029 72.597 120.908C70.4036 118.786 67.7175 117.117 64.5625 115.877C61.3995 114.645 57.9266 114.025 54.1438 114.025C51.2908 114.025 48.3265 114.439 45.243 115.249C42.1516 116.06 39.1714 117.403 36.2786 119.294C33.3859 121.186 30.7236 123.673 28.2918 126.757C25.86 129.832 23.8732 133.615 22.3314 138.089L8.45574 178.342C7.21599 182.116 6.60406 185.82 6.60406 189.436C6.60406 192.837 7.16036 195.873 8.28091 198.575C9.40145 201.277 10.9432 203.605 12.9061 205.576C14.877 207.547 17.2214 209.145 19.9552 210.368C22.697 211.608 25.6851 212.379 28.9275 212.681L26.0348 213.261C23.0308 214.112 20.1539 214.994 17.4201 215.923C14.6863 216.845 12.2147 217.966 10.0134 219.277C7.81997 220.588 5.9365 222.13 4.34708 223.902C2.7656 225.667 1.58943 227.828 0.810607 230.379C0.270202 232.072 0 233.876 0 235.815C0 238.279 0.508616 240.655 1.50995 242.928C2.51129 245.201 3.93383 247.187 5.78551 248.888C7.63719 250.589 9.91802 251.932 12.6121 252.933C15.3141 253.935 18.3579 254.443 21.7513 254.443C24.6043 254.443 27.3779 254.054 30.0799 253.283C32.7819 252.52 35.3011 251.32 37.6614 249.699C40.0058 248.086 42.1277 246.059 44.0191 243.635C45.9026 241.203 47.4682 238.295 48.7 234.901C49.5503 232.43 50.4404 229.966 51.3702 227.494C52.2921 225.023 53.1822 222.599 54.0325 220.207C58.1968 218.896 62.3214 217.298 66.4062 215.399C70.4831 213.515 74.3374 211.084 77.9693 208.111C81.5932 205.147 84.9071 201.523 87.9191 197.24C90.9231 192.956 93.4264 187.775 95.4291 181.679C95.453 181.616 95.4688 181.544 95.4847 181.481L100.976 166.763C101.898 167.072 102.884 167.374 103.925 167.684C104.966 167.994 105.88 168.431 106.65 169.012C107.413 169.592 107.978 170.323 108.327 171.205C108.669 172.095 108.613 173.231 108.152 174.622L103.058 188.728C102.136 191.43 101.668 193.894 101.668 196.135C101.668 198.67 102.129 200.959 103.058 202.978C103.98 205.004 105.26 206.729 106.881 208.143C108.494 209.558 110.37 210.67 112.492 211.465C114.613 212.268 116.87 212.665 119.255 212.665C124.802 212.665 129.999 210.623 134.863 206.53C136.436 208.088 138.304 209.319 140.473 210.241C142.675 211.163 145.043 211.632 147.594 211.632C150.145 211.632 152.815 211.107 155.398 210.066C157.981 209.025 160.309 207.579 162.392 205.735C163.242 207.198 164.378 208.398 165.809 209.319C167.231 210.241 168.718 210.949 170.259 211.457C171.801 211.95 173.287 212.284 174.71 212.443C176.14 212.594 177.316 212.673 178.246 212.673C180.026 212.673 181.846 212.474 183.722 212.069L177.086 230.84C176.323 232.922 176.1 234.71 176.458 236.22C176.8 237.73 177.491 238.938 178.54 239.86C179.581 240.782 180.837 241.418 182.299 241.768C183.761 242.109 185.224 242.109 186.694 241.768C188.156 241.418 189.515 240.742 190.739 239.741C191.979 238.74 192.861 237.389 193.409 235.696C194.101 233.773 194.848 231.667 195.666 229.394C196.477 227.113 197.28 224.785 198.09 222.392C198.909 220 199.687 217.672 200.466 215.391C201.237 213.118 201.976 211.012 202.66 209.089C204.201 210.249 205.902 211.179 207.754 211.862C209.605 212.562 211.688 212.904 214 212.904C215.463 213.055 216.957 213.174 218.459 213.245C219.953 213.325 221.407 213.365 222.79 213.365C228.416 213.365 233.661 212.745 238.525 211.513C241.736 210.694 244.772 209.59 247.593 208.191C248.658 210.209 250.096 211.545 251.932 212.204C253.855 212.904 255.905 212.768 258.067 211.799C260.221 210.829 261.89 208.811 263.042 205.735L276.926 166.755C278.157 164.513 279.675 162.662 281.495 161.2C283.307 159.737 285.095 159.006 286.875 159.006C288.028 159.006 288.981 159.372 289.713 160.103C290.444 160.842 290.809 161.74 290.809 162.821C290.809 163.592 290.658 164.291 290.348 164.911L282.028 188.617V188.498C281.106 191.271 280.637 193.823 280.637 196.135C280.637 198.829 281.177 201.213 282.25 203.303C283.331 205.386 284.754 207.118 286.534 208.501C288.298 209.892 290.324 210.933 292.597 211.632C294.878 212.323 297.238 212.665 299.718 212.665C302.492 212.665 305.321 212.188 308.213 211.219C310.955 210.313 313.641 208.779 316.272 206.609C316.78 207.166 317.329 207.674 317.933 208.159C319.745 209.621 321.827 210.742 324.179 211.513C326.532 212.276 329.059 212.665 331.761 212.665C334.614 212.665 337.483 212.188 340.375 211.219C343.26 210.257 346.097 208.588 348.871 206.196C349.578 205.592 350.278 204.933 350.969 204.225C351.644 204.956 352.399 205.656 353.218 206.307C355.713 208.318 358.725 209.892 362.238 211.052C365.743 212.204 369.613 212.784 373.857 212.784C378.1 212.784 382.305 212.172 386.469 210.933C390.633 209.693 394.543 207.809 398.207 205.266C401.87 202.715 405.168 199.521 408.093 195.666C411.025 191.804 413.418 187.258 415.269 182.013C416.032 179.931 415.881 178.183 414.808 176.752V176.776ZM29.9925 233.399C29.1501 235.553 27.9342 237.174 26.3527 238.255C24.7791 239.344 23.142 239.876 21.4414 239.876C20.1301 239.876 19.1446 239.534 18.493 238.835C17.8334 238.144 17.5075 237.254 17.5075 236.173C17.5075 235.783 17.5393 235.378 17.6267 234.965C17.7062 234.536 17.8095 234.13 17.9685 233.741C18.8188 231.738 20.5513 230.117 23.1659 228.885C25.7884 227.645 29.0309 226.533 32.8852 225.532L29.9925 233.399V233.399ZM165.896 173.828L161.732 185.74C160.882 187.902 159.96 189.618 158.958 190.89C157.957 192.162 156.988 193.115 156.066 193.727C155.144 194.339 154.27 194.728 153.467 194.879C152.656 195.038 151.981 195.038 151.448 194.879C150.527 194.649 149.843 194.204 149.422 193.552C148.993 192.901 148.746 192.162 148.675 191.359C148.587 190.548 148.635 189.746 148.786 188.927C148.945 188.116 149.136 187.401 149.366 186.789L155.382 168.861C156.304 166.397 157.25 164.601 158.219 163.48C159.181 162.36 160.087 161.629 160.937 161.287C161.78 160.945 162.495 160.826 163.075 160.945C163.655 161.056 163.981 161.152 164.061 161.231C164.14 161.231 164.45 161.366 164.982 161.637C165.515 161.907 166.023 162.487 166.492 163.369C166.953 164.259 167.2 165.531 167.239 167.192C167.271 168.853 166.834 171.07 165.912 173.835L165.896 173.828ZM229.624 169.091C228.933 171.404 228.281 173.446 227.661 175.218C227.041 176.99 226.438 178.739 225.865 180.424C225.285 182.124 224.665 183.857 224.014 185.629C223.354 187.393 222.639 189.404 221.868 191.637C221.256 193.409 220.231 194.784 218.808 195.746C217.378 196.715 215.9 197.232 214.358 197.311C212.506 197.311 211.044 196.676 209.955 195.404C208.874 194.132 208.723 192.265 209.494 189.793L217.481 167.009L217.243 167.128C218.244 165.125 219.555 163.584 221.177 162.503C222.79 161.422 224.419 160.929 226.032 161.009C227.804 161.16 229.044 161.986 229.736 163.488C230.427 164.998 230.395 166.866 229.616 169.099L229.624 169.091Z" fill="url(#paint5_linear_18_25996)"/>
<path d="M351.533 117.912C349.682 116.1 347.44 115.194 344.826 115.194C342.211 115.194 339.97 116.1 338.119 117.912C336.267 119.723 335.345 121.941 335.345 124.555C335.345 127.17 336.267 129.53 338.119 131.382C339.97 133.234 342.195 134.155 344.826 134.155C347.456 134.155 349.682 133.234 351.533 131.382C353.385 129.53 354.307 127.257 354.307 124.555C354.307 121.853 353.385 119.716 351.533 117.912Z" fill="url(#paint6_linear_18_25996)"/>
<path d="M639.188 180.368C638.957 179.025 638.417 177.92 637.574 177.07C636.724 176.227 635.667 175.679 634.395 175.457C633.116 175.218 631.844 175.282 630.573 175.624C629.301 175.973 628.125 176.649 627.044 177.65C625.956 178.651 625.153 180.002 624.612 181.695C622.069 187.791 619.407 192.185 616.634 194.879C613.86 197.581 611.158 198.924 608.528 198.924C606.445 198.924 605.404 197.963 605.404 196.04C605.404 195.189 605.595 194.069 605.984 192.686L618.93 155.676C619.94 152.752 619.94 150.375 618.93 148.564C617.929 146.752 616.506 145.504 614.655 144.805C612.803 144.105 610.777 144.01 608.583 144.518C606.39 145.011 604.594 146.116 603.203 147.809C602.043 147.046 600.35 146.251 598.109 145.448C595.868 144.63 593.134 144.224 589.899 144.224C586.045 144.224 582.326 145.313 578.742 147.467C575.15 149.628 572.503 152.903 570.818 157.305L559.947 187.957C559.557 189.038 559.271 190.079 559.081 191.081C559.049 191.24 559.025 191.399 558.993 191.557C558.588 192.177 558.167 192.781 557.745 193.33C556.434 195.062 555.123 196.437 553.812 197.438C552.5 198.44 551.229 198.932 549.997 198.932C549.147 198.932 548.527 198.646 548.145 198.066C547.756 197.494 547.565 196.779 547.565 195.928C547.565 195.078 547.716 194.236 548.026 193.385L554.853 174.416C555.242 173.263 555.528 172.159 555.719 171.117C555.91 170.084 556.005 169.059 556.005 168.058C556.005 165.284 555.258 162.908 553.748 160.945C552.254 158.974 550.418 157.305 548.257 155.915C546.103 154.524 543.862 153.387 541.549 152.497C539.237 151.615 537.266 150.94 535.652 150.479C536.193 148.858 536.288 147.3 535.938 145.79C535.597 144.28 534.961 142.937 534.031 141.745C533.109 140.553 531.949 139.583 530.566 138.852C529.175 138.121 527.713 137.747 526.171 137.747C523.779 137.747 521.713 138.407 519.981 139.718C518.248 141.03 517.072 142.73 516.452 144.812C516.063 145.663 515.777 146.585 515.586 147.586C515.395 148.587 515.3 149.509 515.3 150.36C515.3 153.435 516.261 156.185 518.185 158.569L512.908 172.81C512.383 173.621 511.986 174.567 511.708 175.679C510.396 179.541 508.433 182.871 505.811 185.685C503.196 188.506 500.256 190.834 497.029 192.686C493.787 194.538 490.393 195.944 486.849 196.906C483.297 197.875 479.911 198.352 476.669 198.352C469.89 197.74 465.161 195.634 462.499 192.05C459.837 188.458 459.511 183.658 461.514 177.642C462.364 175.56 463.421 173.923 464.692 172.731C465.972 171.539 467.331 170.625 468.801 170.013C470.271 169.401 471.789 168.988 473.371 168.789C474.952 168.606 476.438 168.503 477.829 168.503C481.445 170.744 484.624 171.857 487.374 171.857C490.123 171.857 492.364 171.237 494.137 170.005C495.909 168.765 497.196 167.112 498.007 165.03C498.825 162.94 499.048 160.905 498.706 158.895C498.364 156.892 497.411 155.136 495.869 153.634C494.327 152.124 492.166 151.305 489.392 151.146C485.927 151.146 483.297 150.129 481.524 148.087C479.76 146.044 478.862 143.668 478.862 140.966C478.862 137.191 479.887 134.068 481.93 131.604C483.964 129.141 486.921 127.901 490.775 127.901C492.547 127.901 494.192 128.465 495.686 129.578C497.196 130.698 498.174 131.914 498.643 133.218C499.032 136.15 500.121 138.312 501.941 139.695C503.753 141.085 505.66 141.753 507.663 141.721C509.665 141.681 511.501 140.99 513.154 139.631C514.815 138.288 515.721 136.333 515.872 133.79C516.031 130.714 515.506 127.877 514.314 125.294C513.114 122.712 511.406 120.455 509.165 118.523C506.923 116.608 504.269 115.098 501.178 114.017C498.102 112.937 494.741 112.404 491.117 112.404C488.192 112.404 485.22 112.825 482.216 113.676C479.212 114.526 476.375 115.798 473.72 117.498C471.05 119.191 468.69 121.353 466.6 123.975C464.518 126.59 462.896 129.641 461.744 133.114L461.506 133.806C460.655 136.579 460.234 139.122 460.234 141.435C460.234 146.219 461.744 150.423 464.74 154.047C460.425 154.897 456.777 156.423 453.813 158.617C450.841 160.81 448.433 163.393 446.589 166.365C444.737 169.337 443.394 172.492 442.544 175.846C441.693 179.2 441.272 182.418 441.272 185.502C441.272 189.277 442.067 192.805 443.633 196.087C445.214 199.362 447.455 202.215 450.348 204.646C453.233 207.078 456.745 209.025 460.87 210.488C464.994 211.95 469.564 212.76 474.579 212.919C480.134 213.07 485.585 212.411 490.942 210.948C496.298 209.486 501.273 207.285 505.859 204.36C510.444 201.428 514.457 197.764 517.891 193.369C519.48 191.327 520.91 189.134 522.142 186.813C523.064 185.096 523.891 183.308 524.614 181.425L524.995 180.408L530.097 166.762C531.019 167.072 532.005 167.374 533.054 167.684C534.087 167.994 535.001 168.431 535.772 169.011C536.534 169.592 537.099 170.323 537.448 171.205C537.79 172.095 537.735 173.231 537.274 174.622L532.195 188.728C531.273 191.43 530.805 193.894 530.805 196.135C530.805 198.67 531.266 200.959 532.195 202.978C533.109 205.004 534.389 206.729 536.01 208.143C537.631 209.558 539.499 210.67 541.621 211.465C543.743 212.268 546 212.665 548.384 212.665C553.931 212.665 559.128 210.623 563.992 206.53C565.565 208.088 567.433 209.319 569.61 210.241C571.804 211.163 574.18 211.632 576.723 211.632C579.266 211.632 581.944 211.107 584.527 210.066C587.11 209.025 589.439 207.579 591.529 205.735C592.371 207.197 593.507 208.397 594.938 209.319C596.368 210.241 597.847 210.948 599.388 211.457C600.938 211.95 602.416 212.284 603.847 212.443C605.269 212.594 606.445 212.673 607.375 212.673C609.767 212.673 612.231 212.307 614.782 211.576C617.325 210.837 619.828 209.653 622.292 207.992C624.756 206.331 627.156 204.098 629.46 201.277C631.773 198.464 633.934 194.975 635.937 190.81C636.398 189.73 636.803 188.824 637.161 188.093C637.503 187.361 637.908 186.376 638.369 185.144C639.132 183.292 639.41 181.695 639.18 180.336L639.188 180.368ZM595.009 173.827L590.845 185.74C589.995 187.902 589.073 189.618 588.072 190.89C587.07 192.161 586.101 193.115 585.187 193.727C584.249 194.339 583.383 194.728 582.58 194.879C581.77 195.038 581.102 195.038 580.562 194.879C579.64 194.649 578.956 194.204 578.535 193.552C578.114 192.901 577.86 192.161 577.788 191.359C577.701 190.548 577.748 189.746 577.899 188.927C578.058 188.116 578.249 187.401 578.479 186.789L584.495 168.86C585.417 166.397 586.363 164.601 587.333 163.48C588.294 162.36 589.2 161.629 590.05 161.287C590.901 160.945 591.608 160.826 592.188 160.945C592.768 161.056 593.094 161.152 593.174 161.231C593.253 161.231 593.563 161.366 594.096 161.637C594.628 161.907 595.137 162.487 595.605 163.369C596.066 164.259 596.313 165.531 596.353 167.192C596.392 168.853 595.947 171.07 595.025 173.835L595.009 173.827Z" fill="url(#paint7_linear_18_25996)"/>
<path d="M522.166 186.829C522.794 186.082 523.294 185.168 523.636 184.127L524.638 181.441C523.914 183.316 523.088 185.113 522.166 186.829Z" fill="url(#paint8_linear_18_25996)"/>
<path d="M654.454 193.727C657.148 193.727 659.429 194.633 661.281 196.445C663.132 198.257 664.054 200.514 664.054 203.208C664.054 205.902 663.132 208.064 661.281 209.916C659.429 211.767 657.156 212.689 654.454 212.689C651.752 212.689 649.598 211.767 647.747 209.916C645.895 208.064 644.973 205.831 644.973 203.208C644.973 200.586 645.895 198.257 647.747 196.445C649.598 194.633 651.831 193.727 654.454 193.727ZM669.72 181.465C668.719 184.008 667.233 185.645 665.27 186.376C663.307 187.107 661.416 187.171 659.604 186.551C657.792 185.931 656.385 184.755 655.384 183.022C654.382 181.29 654.382 179.263 655.384 176.951L677.819 114.375C678.51 112.372 679.495 110.775 680.767 109.575C682.038 108.383 683.405 107.549 684.876 107.088C686.338 106.627 687.808 106.531 689.27 106.802C690.733 107.072 691.988 107.692 693.029 108.653C694.07 109.615 694.786 110.91 695.167 112.531C695.549 114.153 695.437 116.076 694.817 118.317L669.72 181.465V181.465Z" fill="url(#paint9_linear_18_25996)"/>
<path d="M110.886 308.662L102.44 279.636H109.543L114.502 298.277L119.504 279.722H125.681L131.019 298.444L135.804 279.636H142.82L134.332 308.662H128.068L122.606 289.311L117.144 308.662H110.886Z" fill="black"/>
<path d="M146.691 308.662V279.636H168.291V285.475H153.501V291.062H167.744V296.902H153.501V302.822H168.502V308.662H146.691V308.662Z" fill="black"/>
<path d="M171.945 291.857C172.871 290.396 173.586 289.187 174.132 288.188C174.679 287.226 175.015 286.351 175.226 285.561C174.425 285.352 173.753 284.976 173.25 284.352C172.747 283.729 172.492 283.02 172.492 282.182C172.492 281.22 172.871 280.345 173.586 279.555C174.3 278.803 175.226 278.427 176.401 278.427C177.575 278.427 178.626 278.803 179.427 279.555C180.185 280.345 180.564 281.43 180.564 282.805C180.564 284.18 180.309 285.475 179.806 286.807C179.259 288.14 178.333 289.811 177.034 291.852H171.951L171.945 291.857Z" fill="black"/>
<path d="M185.598 308.662V279.636H198.077C200.432 279.636 202.445 280.055 204.172 280.844C205.894 281.634 207.198 282.762 208.124 284.223C209.05 285.685 209.51 287.393 209.51 289.354C209.51 291.315 209.007 293.147 208.038 294.608C207.031 296.069 205.683 297.192 203.961 297.987L211.107 308.662H203.333L197.2 299.153H192.452V308.662H185.604H185.598ZM192.446 293.399H197.113C199.002 293.399 200.388 293.066 201.271 292.357C202.153 291.648 202.575 290.649 202.575 289.273C202.575 287.898 202.153 286.936 201.271 286.313C200.388 285.685 199.002 285.395 197.113 285.395H192.446V293.399V293.399Z" fill="black"/>
<path d="M214.637 308.662V279.636H236.237V285.475H221.447V291.062H235.69V296.902H221.447V302.822H236.448V308.662H214.637V308.662Z" fill="black"/>
<path d="M256.489 307.367C254.264 306.072 252.537 304.24 251.319 301.946C250.101 299.652 249.468 297.068 249.468 294.146C249.468 291.223 250.096 288.602 251.319 286.308C252.537 284.014 254.259 282.22 256.489 280.93C258.72 279.641 261.28 278.969 264.22 278.969C267.625 278.969 270.483 279.765 272.795 281.387C275.106 283.015 276.66 285.309 277.375 288.269H270.397C269.974 287.307 269.26 286.517 268.253 285.889C267.203 285.266 265.86 284.97 264.22 284.97C261.827 284.97 259.932 285.803 258.546 287.431C257.117 289.058 256.403 291.309 256.403 294.146C256.403 296.982 257.117 299.147 258.546 300.818C259.975 302.527 261.951 303.359 264.469 303.359C265.811 303.359 266.991 303.107 267.998 302.607C268.962 302.15 269.763 301.479 270.31 300.646C270.857 299.851 271.149 298.938 271.149 297.976V297.643H264.214V292.056H277.873V296.349C277.873 298.766 277.326 300.936 276.276 302.897C275.226 304.858 273.672 306.443 271.653 307.566C269.595 308.731 267.154 309.317 264.258 309.317C261.361 309.317 258.709 308.651 256.484 307.356L256.489 307.367Z" fill="black"/>
<path d="M303.636 302.779V308.656H282.539V279.636H289.387V302.779H303.631H303.636Z" fill="black"/>
<path d="M327.629 308.662L325.61 302.865H314.517L312.498 308.662H305.607L316.661 279.636H323.807L334.856 308.662H327.629V308.662ZM316.537 297.068H323.553L320.066 287.017L316.537 297.068Z" fill="black"/>
<path d="M338.386 308.662V279.636H349.776C352.802 279.636 355.449 280.221 357.674 281.43C359.899 282.639 361.626 284.309 362.844 286.474C364.062 288.645 364.652 291.186 364.652 294.146C364.652 297.106 364.062 299.652 362.844 301.817C361.626 303.988 359.905 305.653 357.674 306.862C355.449 308.071 352.802 308.656 349.776 308.656H338.386V308.662ZM345.234 302.784H349.354C351.914 302.784 353.934 302.032 355.449 300.533C356.96 299.035 357.718 296.907 357.718 294.151C357.718 291.395 356.96 289.273 355.449 287.769C353.939 286.27 351.92 285.518 349.354 285.518H345.234V302.779V302.784Z" fill="black"/>
<path d="M367.002 316C368.009 314.458 368.853 313.04 369.525 311.831C370.153 310.622 370.618 309.537 370.867 308.662C370.066 308.452 369.438 308.076 368.978 307.453C368.474 306.83 368.22 306.121 368.22 305.325C368.22 304.364 368.599 303.488 369.314 302.698C370.028 301.946 370.954 301.57 372.129 301.57C373.303 301.57 374.354 301.946 375.155 302.698C375.913 303.494 376.292 304.573 376.292 305.949C376.292 307.324 375.956 308.828 375.285 310.451C374.613 312.078 373.601 313.91 372.215 315.995H367.002V316Z" fill="black"/>
<path d="M398.688 308.662V298.03L388.099 279.641H395.791L402.261 291.691L408.735 279.641H416.13L405.541 298.03V308.662H398.693H398.688Z" fill="black"/>
<path d="M427.049 308.2C425.198 307.447 423.601 306.405 422.302 305.03C420.959 303.655 419.909 302.07 419.194 300.195C418.436 298.358 418.057 296.359 418.057 294.146C418.057 291.932 418.436 289.934 419.194 288.059C419.909 286.222 420.959 284.637 422.302 283.262C423.606 281.886 425.203 280.844 427.049 280.092C428.857 279.34 430.871 278.964 433.058 278.964C435.245 278.964 437.303 279.34 439.154 280.092C440.962 280.844 442.559 281.886 443.902 283.262C445.244 284.637 446.3 286.222 447.052 288.059C447.767 289.934 448.146 291.938 448.146 294.146C448.146 296.354 447.767 298.358 447.052 300.195C446.295 302.07 445.244 303.655 443.902 305.03C442.559 306.405 440.962 307.447 439.154 308.2C437.303 308.952 435.289 309.328 433.058 309.328C430.828 309.328 428.857 308.952 427.049 308.2ZM437.303 302.15C438.521 301.398 439.49 300.313 440.204 298.938C440.876 297.563 441.211 295.935 441.211 294.14C441.211 292.346 440.876 290.681 440.204 289.305C439.49 287.93 438.521 286.888 437.303 286.093C436.085 285.341 434.655 284.965 433.058 284.965C431.461 284.965 430.119 285.341 428.901 286.093C427.683 286.888 426.714 287.93 426.042 289.305C425.328 290.681 424.992 292.309 424.992 294.14C424.992 295.972 425.328 297.563 426.042 298.938C426.714 300.313 427.683 301.398 428.901 302.15C430.119 302.945 431.505 303.316 433.058 303.316C434.612 303.316 436.085 302.94 437.303 302.15V302.15Z" fill="black"/>
<path d="M458.231 307.7C456.299 306.615 454.826 305.073 453.863 303.069C452.856 301.108 452.352 298.777 452.352 296.064V279.636H459.163V295.231C459.163 297.692 459.623 299.652 460.592 301.108C461.555 302.57 463.114 303.316 465.339 303.316C467.564 303.316 469.205 302.564 470.174 301.108C471.1 299.647 471.56 297.686 471.56 295.231V279.636H478.408V296.064C478.408 298.777 477.904 301.108 476.935 303.069C475.928 305.073 474.456 306.615 472.523 307.7C470.591 308.785 468.192 309.328 465.339 309.328C462.487 309.328 460.169 308.785 458.237 307.7H458.231Z" fill="black"/>
<path d="M512.86 308.662L510.841 302.865H499.748L497.729 308.662H490.837L501.892 279.636H509.038L520.092 308.662H512.865H512.86ZM501.767 297.068H508.783L505.297 287.017L501.767 297.068Z" fill="black"/>
<path d="M525.717 306.867C523.573 305.239 522.144 303.031 521.516 300.152H528.283C528.575 301.151 529.29 301.989 530.34 302.612C531.391 303.236 532.652 303.574 534.206 303.574C535.678 303.574 536.853 303.322 537.735 302.779C538.618 302.236 539.078 301.527 539.078 300.571C539.078 299.985 538.953 299.486 538.699 299.072C538.407 298.653 537.898 298.282 537.145 297.944C536.349 297.654 535.213 297.358 533.659 297.111L530.546 296.569C527.855 296.112 525.842 295.193 524.494 293.899C523.108 292.604 522.436 290.729 522.436 288.269C522.436 286.351 522.94 284.68 523.947 283.305C524.954 281.929 526.34 280.844 528.067 280.092C529.788 279.34 531.721 278.964 533.865 278.964C537.102 278.964 539.749 279.716 541.85 281.215C543.95 282.714 545.211 284.884 545.672 287.678H538.905C538.65 286.721 538.103 286.012 537.308 285.47C536.468 284.97 535.332 284.718 533.946 284.718C532.473 284.718 531.342 284.97 530.541 285.513C529.701 286.055 529.279 286.764 529.279 287.64C529.279 288.43 529.615 289.101 530.286 289.558C530.957 290.015 532.305 290.434 534.319 290.81L537.389 291.309C543.106 292.271 545.964 295.145 545.964 299.856C545.964 301.898 545.46 303.612 544.491 305.03C543.484 306.448 542.099 307.533 540.372 308.242C538.607 308.952 536.588 309.328 534.276 309.328C530.703 309.328 527.845 308.495 525.701 306.867H525.717Z" fill="black"/>
<path d="M550.549 308.662V279.636H557.397V290.896L567.862 279.636H575.928L562.941 293.48L576.599 308.656H567.943L557.397 296.811V308.656H550.549V308.662Z" fill="black"/>
<path d="M579.88 308.662V279.636H601.48V285.475H586.69V291.062H600.933V296.902H586.69V302.822H601.691V308.662H579.88V308.662Z" fill="black"/>
<path d="M606.899 308.662V279.636H618.289C621.316 279.636 623.963 280.221 626.188 281.43C628.413 282.639 630.14 284.309 631.358 286.474C632.576 288.639 633.166 291.186 633.166 294.146C633.166 297.106 632.576 299.652 631.358 301.817C630.14 303.988 628.418 305.653 626.188 306.862C623.963 308.071 621.316 308.656 618.289 308.656H606.899V308.662ZM613.747 302.784H617.867C620.428 302.784 622.447 302.032 623.963 300.533C625.479 299.035 626.231 296.907 626.231 294.151C626.231 291.395 625.473 289.273 623.963 287.769C622.452 286.27 620.433 285.518 617.867 285.518H613.747V302.779V302.784Z" fill="black"/>
<path d="M637.951 308.119C637.15 307.324 636.777 306.411 636.777 305.282C636.777 304.154 637.156 303.241 637.951 302.446C638.747 301.651 639.673 301.28 640.81 301.28C641.947 301.28 642.867 301.656 643.668 302.446C644.469 303.236 644.843 304.154 644.843 305.282C644.843 306.411 644.464 307.324 643.668 308.119C642.872 308.914 641.947 309.285 640.81 309.285C639.673 309.285 638.753 308.909 637.951 308.119Z" fill="black"/>
<path d="M110.886 308.662L102.44 279.636H109.543L114.502 298.277L119.504 279.722H125.681L131.019 298.444L135.804 279.636H142.82L134.332 308.662H128.068L122.606 289.311L117.144 308.662H110.886Z" fill="black"/>
<path d="M146.691 308.662V279.636H168.291V285.475H153.501V291.062H167.744V296.902H153.501V302.822H168.502V308.662H146.691V308.662Z" fill="black"/>
<path d="M171.945 291.857C172.871 290.396 173.586 289.187 174.132 288.188C174.679 287.226 175.015 286.351 175.226 285.561C174.425 285.352 173.753 284.976 173.25 284.352C172.747 283.729 172.492 283.02 172.492 282.182C172.492 281.22 172.871 280.345 173.586 279.555C174.3 278.803 175.226 278.427 176.401 278.427C177.575 278.427 178.626 278.803 179.427 279.555C180.185 280.345 180.564 281.43 180.564 282.805C180.564 284.18 180.309 285.475 179.806 286.807C179.259 288.14 178.333 289.811 177.034 291.852H171.951L171.945 291.857Z" fill="black"/>
<path d="M185.598 308.662V279.636H198.077C200.432 279.636 202.445 280.055 204.172 280.844C205.894 281.634 207.198 282.762 208.124 284.223C209.05 285.685 209.51 287.393 209.51 289.354C209.51 291.315 209.007 293.147 208.038 294.608C207.031 296.069 205.683 297.192 203.961 297.987L211.107 308.662H203.333L197.2 299.153H192.452V308.662H185.604H185.598ZM192.446 293.399H197.113C199.002 293.399 200.388 293.066 201.271 292.357C202.153 291.648 202.575 290.649 202.575 289.273C202.575 287.898 202.153 286.936 201.271 286.313C200.388 285.685 199.002 285.395 197.113 285.395H192.446V293.399V293.399Z" fill="black"/>
<path d="M214.637 308.662V279.636H236.237V285.475H221.447V291.062H235.69V296.902H221.447V302.822H236.448V308.662H214.637V308.662Z" fill="black"/>
<path d="M256.489 307.367C254.264 306.072 252.537 304.24 251.319 301.946C250.101 299.652 249.468 297.068 249.468 294.146C249.468 291.223 250.096 288.602 251.319 286.308C252.537 284.014 254.259 282.22 256.489 280.93C258.72 279.641 261.28 278.969 264.22 278.969C267.625 278.969 270.483 279.765 272.795 281.387C275.106 283.015 276.66 285.309 277.375 288.269H270.397C269.974 287.307 269.26 286.517 268.253 285.889C267.203 285.266 265.86 284.97 264.22 284.97C261.827 284.97 259.932 285.803 258.546 287.431C257.117 289.058 256.403 291.309 256.403 294.146C256.403 296.982 257.117 299.147 258.546 300.818C259.975 302.527 261.951 303.359 264.469 303.359C265.811 303.359 266.991 303.107 267.998 302.607C268.962 302.15 269.763 301.479 270.31 300.646C270.857 299.851 271.149 298.938 271.149 297.976V297.643H264.214V292.056H277.873V296.349C277.873 298.766 277.326 300.936 276.276 302.897C275.226 304.858 273.672 306.443 271.653 307.566C269.595 308.731 267.154 309.317 264.258 309.317C261.361 309.317 258.709 308.651 256.484 307.356L256.489 307.367Z" fill="black"/>
<path d="M303.636 302.779V308.656H282.539V279.636H289.387V302.779H303.631H303.636Z" fill="black"/>
<path d="M327.629 308.662L325.61 302.865H314.517L312.498 308.662H305.607L316.661 279.636H323.807L334.856 308.662H327.629V308.662ZM316.537 297.068H323.553L320.066 287.017L316.537 297.068Z" fill="black"/>
<path d="M338.386 308.662V279.636H349.776C352.802 279.636 355.449 280.221 357.674 281.43C359.899 282.639 361.626 284.309 362.844 286.474C364.062 288.645 364.652 291.186 364.652 294.146C364.652 297.106 364.062 299.652 362.844 301.817C361.626 303.988 359.905 305.653 357.674 306.862C355.449 308.071 352.802 308.656 349.776 308.656H338.386V308.662ZM345.234 302.784H349.354C351.914 302.784 353.934 302.032 355.449 300.533C356.96 299.035 357.718 296.907 357.718 294.151C357.718 291.395 356.96 289.273 355.449 287.769C353.939 286.27 351.92 285.518 349.354 285.518H345.234V302.779V302.784Z" fill="black"/>
<path d="M367.002 316C368.009 314.458 368.853 313.04 369.525 311.831C370.153 310.622 370.618 309.537 370.867 308.662C370.066 308.452 369.438 308.076 368.978 307.453C368.474 306.83 368.22 306.121 368.22 305.325C368.22 304.364 368.599 303.488 369.314 302.698C370.028 301.946 370.954 301.57 372.129 301.57C373.303 301.57 374.354 301.946 375.155 302.698C375.913 303.494 376.292 304.573 376.292 305.949C376.292 307.324 375.956 308.828 375.285 310.451C374.613 312.078 373.601 313.91 372.215 315.995H367.002V316Z" fill="black"/>
<path d="M398.688 308.662V298.03L388.099 279.641H395.791L402.261 291.691L408.735 279.641H416.13L405.541 298.03V308.662H398.693H398.688Z" fill="black"/>
<path d="M427.049 308.2C425.198 307.447 423.601 306.405 422.302 305.03C420.959 303.655 419.909 302.07 419.194 300.195C418.436 298.358 418.057 296.359 418.057 294.146C418.057 291.932 418.436 289.934 419.194 288.059C419.909 286.222 420.959 284.637 422.302 283.262C423.606 281.886 425.203 280.844 427.049 280.092C428.857 279.34 430.871 278.964 433.058 278.964C435.245 278.964 437.303 279.34 439.154 280.092C440.962 280.844 442.559 281.886 443.902 283.262C445.244 284.637 446.3 286.222 447.052 288.059C447.767 289.934 448.146 291.938 448.146 294.146C448.146 296.354 447.767 298.358 447.052 300.195C446.295 302.07 445.244 303.655 443.902 305.03C442.559 306.405 440.962 307.447 439.154 308.2C437.303 308.952 435.289 309.328 433.058 309.328C430.828 309.328 428.857 308.952 427.049 308.2ZM437.303 302.15C438.521 301.398 439.49 300.313 440.204 298.938C440.876 297.563 441.211 295.935 441.211 294.14C441.211 292.346 440.876 290.681 440.204 289.305C439.49 287.93 438.521 286.888 437.303 286.093C436.085 285.341 434.655 284.965 433.058 284.965C431.461 284.965 430.119 285.341 428.901 286.093C427.683 286.888 426.714 287.93 426.042 289.305C425.328 290.681 424.992 292.309 424.992 294.14C424.992 295.972 425.328 297.563 426.042 298.938C426.714 300.313 427.683 301.398 428.901 302.15C430.119 302.945 431.505 303.316 433.058 303.316C434.612 303.316 436.085 302.94 437.303 302.15V302.15Z" fill="black"/>
<path d="M458.231 307.7C456.299 306.615 454.826 305.073 453.863 303.069C452.856 301.108 452.352 298.777 452.352 296.064V279.636H459.163V295.231C459.163 297.692 459.623 299.652 460.592 301.108C461.555 302.57 463.114 303.316 465.339 303.316C467.564 303.316 469.205 302.564 470.174 301.108C471.1 299.647 471.56 297.686 471.56 295.231V279.636H478.408V296.064C478.408 298.777 477.904 301.108 476.935 303.069C475.928 305.073 474.456 306.615 472.523 307.7C470.591 308.785 468.192 309.328 465.339 309.328C462.487 309.328 460.169 308.785 458.237 307.7H458.231Z" fill="black"/>
<path d="M512.86 308.662L510.841 302.865H499.748L497.729 308.662H490.837L501.892 279.636H509.038L520.092 308.662H512.865H512.86ZM501.767 297.068H508.783L505.297 287.017L501.767 297.068Z" fill="black"/>
<path d="M525.717 306.867C523.573 305.239 522.144 303.031 521.516 300.152H528.283C528.575 301.151 529.29 301.989 530.34 302.612C531.391 303.236 532.652 303.574 534.206 303.574C535.678 303.574 536.853 303.322 537.735 302.779C538.618 302.236 539.078 301.527 539.078 300.571C539.078 299.985 538.953 299.486 538.699 299.072C538.407 298.653 537.898 298.282 537.145 297.944C536.349 297.654 535.213 297.358 533.659 297.111L530.546 296.569C527.855 296.112 525.842 295.193 524.494 293.899C523.108 292.604 522.436 290.729 522.436 288.269C522.436 286.351 522.94 284.68 523.947 283.305C524.954 281.929 526.34 280.844 528.067 280.092C529.788 279.34 531.721 278.964 533.865 278.964C537.102 278.964 539.749 279.716 541.85 281.215C543.95 282.714 545.211 284.884 545.672 287.678H538.905C538.65 286.721 538.103 286.012 537.308 285.47C536.468 284.97 535.332 284.718 533.946 284.718C532.473 284.718 531.342 284.97 530.541 285.513C529.701 286.055 529.279 286.764 529.279 287.64C529.279 288.43 529.615 289.101 530.286 289.558C530.957 290.015 532.305 290.434 534.319 290.81L537.389 291.309C543.106 292.271 545.964 295.145 545.964 299.856C545.964 301.898 545.46 303.612 544.491 305.03C543.484 306.448 542.099 307.533 540.372 308.242C538.607 308.952 536.588 309.328 534.276 309.328C530.703 309.328 527.845 308.495 525.701 306.867H525.717Z" fill="black"/>
<path d="M550.549 308.662V279.636H557.397V290.896L567.862 279.636H575.928L562.941 293.48L576.599 308.656H567.943L557.397 296.811V308.656H550.549V308.662Z" fill="black"/>
<path d="M579.88 308.662V279.636H601.48V285.475H586.69V291.062H600.933V296.902H586.69V302.822H601.691V308.662H579.88V308.662Z" fill="black"/>
<path d="M606.899 308.662V279.636H618.289C621.316 279.636 623.963 280.221 626.188 281.43C628.413 282.639 630.14 284.309 631.358 286.474C632.576 288.639 633.166 291.186 633.166 294.146C633.166 297.106 632.576 299.652 631.358 301.817C630.14 303.988 628.418 305.653 626.188 306.862C623.963 308.071 621.316 308.656 618.289 308.656H606.899V308.662ZM613.747 302.784H617.867C620.428 302.784 622.447 302.032 623.963 300.533C625.479 299.035 626.231 296.907 626.231 294.151C626.231 291.395 625.473 289.273 623.963 287.769C622.452 286.27 620.433 285.518 617.867 285.518H613.747V302.779V302.784Z" fill="black"/>
<path d="M637.951 308.119C637.15 307.324 636.777 306.411 636.777 305.282C636.777 304.154 637.156 303.241 637.951 302.446C638.747 301.651 639.673 301.28 640.81 301.28C641.947 301.28 642.867 301.656 643.668 302.446C644.469 303.236 644.843 304.154 644.843 305.282C644.843 306.411 644.464 307.324 643.668 308.119C642.872 308.914 641.947 309.285 640.81 309.285C639.673 309.285 638.753 308.909 637.951 308.119Z" fill="black"/>
<defs>
<linearGradient id="paint0_linear_18_25996" x1="0.0399006" y1="127.226" x2="695.39" y2="127.226" gradientUnits="userSpaceOnUse">
<stop stop-color="#410DFF"/>
<stop offset="0.45" stop-color="#D900D5"/>
<stop offset="0.75" stop-color="#FF5E4F"/>
<stop offset="1" stop-color="#FFCD9E"/>
</linearGradient>
<linearGradient id="paint1_linear_18_25996" x1="0.0396139" y1="127.225" x2="695.389" y2="127.225" gradientUnits="userSpaceOnUse">
<stop stop-color="#410DFF"/>
<stop offset="0.45" stop-color="#D900D5"/>
<stop offset="0.75" stop-color="#FF5E4F"/>
<stop offset="1" stop-color="#FFCD9E"/>
</linearGradient>
<linearGradient id="paint2_linear_18_25996" x1="0.039704" y1="127.226" x2="695.39" y2="127.226" gradientUnits="userSpaceOnUse">
<stop stop-color="#410DFF"/>
<stop offset="0.45" stop-color="#D900D5"/>
<stop offset="0.75" stop-color="#FF5E4F"/>
<stop offset="1" stop-color="#FFCD9E"/>
</linearGradient>
<linearGradient id="paint3_linear_18_25996" x1="0.0396476" y1="127.226" x2="695.39" y2="127.226" gradientUnits="userSpaceOnUse">
<stop stop-color="#410DFF"/>
<stop offset="0.45" stop-color="#D900D5"/>
<stop offset="0.75" stop-color="#FF5E4F"/>
<stop offset="1" stop-color="#FFCD9E"/>
</linearGradient>
<linearGradient id="paint4_linear_18_25996" x1="0.0397937" y1="127.225" x2="695.39" y2="127.225" gradientUnits="userSpaceOnUse">
<stop stop-color="#410DFF"/>
<stop offset="0.45" stop-color="#D900D5"/>
<stop offset="0.75" stop-color="#FF5E4F"/>
<stop offset="1" stop-color="#FFCD9E"/>
</linearGradient>
<linearGradient id="paint5_linear_18_25996" x1="0.0397356" y1="127.226" x2="695.39" y2="127.226" gradientUnits="userSpaceOnUse">
<stop stop-color="#410DFF"/>
<stop offset="0.45" stop-color="#D900D5"/>
<stop offset="0.75" stop-color="#FF5E4F"/>
<stop offset="1" stop-color="#FFCD9E"/>
</linearGradient>
<linearGradient id="paint6_linear_18_25996" x1="0.0399921" y1="127.226" x2="695.389" y2="127.226" gradientUnits="userSpaceOnUse">
<stop stop-color="#410DFF"/>
<stop offset="0.45" stop-color="#D900D5"/>
<stop offset="0.75" stop-color="#FF5E4F"/>
<stop offset="1" stop-color="#FFCD9E"/>
</linearGradient>
<linearGradient id="paint7_linear_18_25996" x1="0.0398384" y1="127.225" x2="695.39" y2="127.225" gradientUnits="userSpaceOnUse">
<stop stop-color="#410DFF"/>
<stop offset="0.45" stop-color="#D900D5"/>
<stop offset="0.75" stop-color="#FF5E4F"/>
<stop offset="1" stop-color="#FFCD9E"/>
</linearGradient>
<linearGradient id="paint8_linear_18_25996" x1="0.0421598" y1="127.226" x2="695.389" y2="127.226" gradientUnits="userSpaceOnUse">
<stop stop-color="#410DFF"/>
<stop offset="0.45" stop-color="#D900D5"/>
<stop offset="0.75" stop-color="#FF5E4F"/>
<stop offset="1" stop-color="#FFCD9E"/>
</linearGradient>
<linearGradient id="paint9_linear_18_25996" x1="0.0400799" y1="127.226" x2="695.39" y2="127.226" gradientUnits="userSpaceOnUse">
<stop stop-color="#410DFF"/>
<stop offset="0.45" stop-color="#D900D5"/>
<stop offset="0.75" stop-color="#FF5E4F"/>
<stop offset="1" stop-color="#FFCD9E"/>
</linearGradient>
</defs>
</svg>
