<svg width="755" height="1363" viewBox="0 0 755 1363" fill="none" xmlns="http://www.w3.org/2000/svg">
<g style="mix-blend-mode:multiply" opacity="0.1" clip-path="url(#clip0_33_1664)">
<path d="M18.7687 1.82551C24.984 146.275 101.114 273.04 177.041 384.616C196.111 412.638 215.7 440.127 235.438 467.37C250.113 487.62 267.299 509.512 271.828 535.121C278.65 573.704 247.321 595.011 219.563 611.454C183.878 632.601 145.445 650.598 118.052 683.197C78.5671 730.205 78.9207 789.36 107.652 843C148.396 919.064 217.651 972.923 262.698 1044.12C323.77 1140.64 288.553 1258.32 291.278 1361.86L285.647 1361.88C283.932 1258.98 320.871 1141.41 259.906 1045.23C213.59 972.177 140.449 919.156 96.9293 842.131C66.1351 787.635 66.9197 729.019 109.285 682.621C137.638 651.571 176.108 635.797 212.371 616.838C239.688 602.554 270.725 584.096 263.736 546.672C259.016 521.394 241.809 499.47 227.315 479.4C207.247 451.626 187.264 423.649 167.757 395.161C89.6042 281.06 7.44057 150.268 0.207209 1.86643L18.7687 1.82551Z" fill="url(#paint0_linear_33_1664)"/>
<path d="M49.3055 1.75819C53.4687 140.695 120.237 261.688 192.968 369.837C211.431 397.286 230.509 424.138 249.788 450.713C264.548 471.059 280.992 493.473 284.173 519.542C288.988 559.064 257.797 584.752 230.429 604.85C195.572 630.449 156.543 652.603 131.166 689.057C96.5749 738.754 100.396 799.592 127.786 852.268C166.711 927.103 232.164 981.799 274.797 1052.28C331.176 1145.48 298.327 1262.58 301.798 1361.84L295.412 1361.86C292.209 1258.28 326.47 1140.74 265.43 1044.35C221.108 974.351 154.243 920.114 115.105 844.759C87.5436 791.701 86.3286 732.165 123.804 684.64C150.483 650.81 188.859 631.219 224.137 608.414C252.178 590.292 283.63 566.953 276.881 527.424C272.457 501.518 255.302 479.573 240.467 459.132C220.975 432.259 201.674 405.099 182.934 377.396C108.594 267.56 36.6557 143.506 31.2539 1.79799L49.3055 1.75819Z" fill="url(#paint1_linear_33_1664)"/>
<path d="M79.8509 1.69086C81.5655 133.628 137.216 247.959 205.667 351.972C223.225 378.658 241.515 404.703 260.091 430.377C275.512 451.688 291.681 474.677 294.748 501.926C299.548 544.627 268.327 575.799 240.301 600.831C206.485 631.042 167.689 658.096 144.477 698.382C114.979 749.578 121.426 811.229 147.071 862.824C183.335 935.783 244.07 990.256 285.784 1057.82C341.786 1148.55 310.05 1264.67 313.633 1361.81L306.684 1361.83C303.088 1263.31 335.385 1146.51 279.104 1054.21C236.898 984.999 173.559 930.298 135.89 856.236C109.34 804.048 104.477 742.861 136.889 692.542C161.381 654.517 200.31 630.365 234.716 602.842C262.388 580.713 293.595 552.74 288.788 511.942C285.669 485.395 269.332 462.778 254.305 442.051C235.313 415.868 216.566 389.355 198.486 362.235C127.543 255.857 65.446 137.703 62.2987 1.72956L79.8509 1.69086Z" fill="url(#paint2_linear_33_1664)"/>
<path d="M110.387 1.62353C109.589 126.507 153.676 234.306 217.71 334.385C234.31 360.339 251.769 385.568 269.588 410.382C285.745 432.861 301.586 456.68 304.571 485.268C309.423 531.7 278.065 568.655 249.584 599.067C216.724 634.155 178.206 666.609 157.362 711.194C132.712 763.91 142.391 826.309 167.068 877.13C201.521 948.095 258.302 1001.6 299.372 1066.44C354.558 1153.57 323.382 1267.98 326.489 1361.81L319.179 1361.82C315.749 1266.01 347.178 1150.56 291.487 1061.31C250.095 994.962 191.188 940.836 155.819 868.746C130.684 817.533 122.887 755.534 150.195 703.663C172.383 661.519 211.056 632.137 244.432 599.791C272.676 572.42 303.945 538.717 299.12 494.432C296.094 466.609 280.063 443.291 264.322 421.48C246.076 396.189 228.149 370.515 211.006 344.158C144.502 241.905 93.916 130.496 93.3133 1.67181L110.355 1.63423L110.387 1.62353Z" fill="url(#paint3_linear_33_1664)"/>
<path d="M140.933 1.55617C137.762 119.483 170.083 220.95 229.646 317.414C258.746 364.537 308.714 412.39 314.248 469.737C319.141 520.357 287.478 563.213 258.679 599.228C226.627 639.31 188.376 677.493 170.029 726.644C149.781 780.902 163.275 843.749 187.611 894.167C220.881 963.083 274.258 1015.05 314.939 1077.29C368.99 1159.98 337.958 1272.18 340.163 1361.78L332.683 1361.79C329.941 1269.81 361.013 1156.36 306.309 1071.17C265.444 1007.54 210.28 954.677 176.434 884.646C151.981 834.058 140.623 771.408 163.189 717.985C182.902 671.329 221.286 636.282 253.759 598.909C282.394 565.946 313.873 526.29 308.996 477.987C303.283 421.363 252.346 372.81 223.164 326.506C161.163 228.145 122.47 123.258 124.391 1.59265L140.933 1.55617V1.55617Z" fill="url(#paint4_linear_33_1664)"/>
<path d="M171.469 1.48885C166.224 113.754 187.41 210.133 243.471 303.883C272.766 352.887 321.319 399.786 324.606 459.754C327.54 513.228 296.163 560.569 267.894 600.983C237.126 644.985 200.788 687.915 183.881 739.827C165.677 795.749 182.592 858.621 206.919 909.772C238.963 977.171 288.917 1028.4 330.453 1087.71C384.843 1165.39 353.298 1276.28 354.358 1361.72L346.867 1361.74C345.177 1274.4 376.254 1163.35 322.825 1082.99C282.252 1021.96 230.364 970.865 197.501 902.926C173.122 852.54 157.663 789.665 176.007 734.657C193.149 683.286 231.298 642.34 263.036 599.867C291.957 561.163 323.837 515.521 318.961 462.796C313.595 404.821 264.446 357.498 235.441 309.652C177.964 214.841 151.269 116.179 155.447 1.51354L171.49 1.47817L171.469 1.48885Z" fill="url(#paint5_linear_33_1664)"/>
<path d="M202.016 1.42151C198.606 54.5581 196.302 108.266 206.308 160.395C215.176 206.595 233.842 249.277 256.635 289.089C285.743 339.932 332.721 385.729 335.576 447.378C338.265 505.359 306.178 558.272 277.644 604.033C247.227 652.818 210.997 701.307 196.353 757.828C181.308 815.901 202.864 877.742 227.915 929.508C242.762 960.186 260.718 989.166 280.275 1016.67C301.293 1046.22 326.732 1071.92 347.918 1100.88C400.798 1173.16 368.982 1281.53 368.787 1361.69L361.435 1361.71C360.986 1278.85 392.662 1169.19 339 1094.15C297.488 1036.09 249.045 985.78 217.236 919.423C192.579 867.985 173.444 805.575 189.989 748.583C205.722 694.388 242.043 648.684 272.604 602.322C300.995 559.25 332.685 509.134 329.852 453.449C326.754 392.652 279.021 346.304 249.798 296.407C195.812 204.215 180.412 110.47 186.493 1.43447L202.027 1.40022L202.016 1.42151Z" fill="url(#paint6_linear_33_1664)"/>
<path d="M232.551 1.35417C228.605 52.2172 223.247 103.987 229.584 154.466C235.057 198.058 250.711 238.365 271.279 275.961C300.029 328.527 345.931 373.401 348.037 436.667C350.119 499.188 317.235 557.142 288.278 608.039C257.965 661.33 221.641 715.113 209.089 776.051C196.674 836.341 222.912 896.46 248.836 949.128C263.404 978.732 280.307 1007.07 299.14 1033.81C319.337 1062.52 344.189 1086.49 365.287 1113.98C416.635 1180.88 384.559 1286.83 383.183 1361.68L376.118 1361.7C376.924 1284.26 408.882 1177.14 356.783 1107.61C335.652 1079.4 310.491 1054.58 289.889 1025.46C270.693 998.339 253.269 969.698 238.562 939.562C213.074 887.361 189.14 826.312 202.779 767.115C216.335 708.322 252.58 657.101 282.918 605.978C311.668 557.526 344.058 502.051 341.683 441.73C339.229 379.273 292.773 333.9 263.855 282.206C242.233 243.56 225.121 202.109 218.01 157.276C209.885 106.015 213.796 53.3128 217.528 1.39792L232.562 1.36478L232.551 1.35417Z" fill="url(#paint7_linear_33_1664)"/>
<path d="M263.098 1.28683C255.072 95.8803 243.357 179.565 287.925 264.869C316.254 319.094 361.304 362.939 362.531 427.801C363.794 494.587 329.635 557.199 300.156 612.679C269.672 670.032 232.976 728.706 222.293 793.7C212.029 856.153 242.819 913.934 269.532 967.653C283.737 996.217 299.501 1023.92 317.504 1049.95C336.828 1077.9 360.89 1100.14 381.899 1126.18C431.792 1187.99 399.636 1291.79 397.293 1361.64L390.632 1361.66C392.544 1289.49 424.698 1184.71 374.131 1120.53C353.077 1093.81 328.61 1070.75 308.86 1042.46C290.453 1016.09 274.124 988.095 259.727 959.032C233.367 905.823 204.719 846.868 215.942 785.423C227.469 722.319 263.958 665.899 294.318 610.417C323.525 557.054 357.03 496.58 355.336 431.782C353.654 367.665 308.241 323.332 279.713 269.872C260.178 233.284 246.003 194.133 242.191 151.791C237.714 102.052 244.445 51.2468 248.553 1.3189L263.077 1.28687L263.098 1.28683Z" fill="url(#paint8_linear_33_1664)"/>
<path d="M293.634 1.2195C286.023 91.5069 265.474 173.085 307.115 256.152C335.022 311.814 379.56 354.597 379.611 420.95C379.671 491.587 343.874 558.21 313.639 617.635C282.696 678.454 245.265 741.435 236.13 809.987C227.549 874.371 262.679 929.347 289.819 984.159C303.469 1011.72 317.925 1038.85 334.917 1064.23C353.21 1091.54 376.184 1112.11 397.095 1136.73C445.777 1194.03 413.819 1296.11 410.84 1361.6L404.709 1361.61C407.44 1294.22 439.534 1191.41 390.338 1132.13C369.372 1106.87 345.855 1085.54 327.062 1057.96C309.581 1032.29 294.486 1004.9 280.559 976.888C253.559 922.574 220.38 866.265 229.686 802.72C239.494 735.728 276.535 674.651 307.227 615.332C337.084 557.63 372.077 492.751 371.415 423.827C370.781 358.135 326.051 314.863 297.954 259.829C255.046 175.776 271.716 93.3775 279.609 1.23979L293.634 1.20887L293.634 1.2195Z" fill="url(#paint9_linear_33_1664)"/>
<path d="M324.18 1.15216C317.689 88.2906 289.934 168.938 329.393 250.161C356.984 306.95 401.349 348.596 399.862 416.271C398.24 490.185 360.389 559.991 329.109 622.576C297.375 686.075 258.794 752.63 250.792 824.146C243.414 889.983 282.65 941.889 309.537 997.722C322.367 1024.35 335.26 1050.99 350.987 1075.8C367.971 1102.61 389.507 1121.66 410.213 1144.88C458.048 1198.49 426.757 1299.46 423.568 1361.58L418.054 1361.6C421.208 1298.13 452.859 1196.75 404.702 1141.62C383.889 1117.8 361.671 1098.09 344.07 1071.08C327.737 1046.03 314.11 1019.19 300.886 992.15C273.788 936.753 236.334 883.462 244.18 818.197C252.642 747.903 290.642 682.827 321.986 620.412C352.769 559.115 389.646 490.608 390.463 418.066C391.219 350.947 346.82 308.79 319.113 252.458C278.792 170.472 303.582 89.5548 310.655 1.18198L324.18 1.15216V1.15216Z" fill="url(#paint10_linear_33_1664)"/>
<path d="M354.715 1.08482C350.058 86.4652 317.065 167.316 355.257 247.266C382.722 304.767 427.287 345.201 423.784 413.943C419.893 490.382 379.561 562.362 346.915 627.171C314.058 692.395 273.815 761.643 266.445 835.379C259.792 901.981 302.845 950.678 328.523 1007.39C340.203 1033.19 351.162 1059.37 365.262 1083.77C380.535 1110.2 400.23 1127.94 420.593 1149.81C468.114 1200.85 438.065 1301.48 435.191 1361.55L430.388 1361.56C433.463 1300.8 464.128 1200.13 416.552 1148.15C396.018 1125.71 375.493 1107.45 359.433 1080.87C344.589 1056.31 332.758 1029.94 320.546 1003.8C294.21 947.433 252.758 897.372 259.656 830.993C267.23 758.097 306.7 689.882 339.038 625.264C371.058 561.275 410.277 490.084 413.128 414.626C415.708 346.3 371.27 305.345 343.784 248.088C305.188 167.672 336.204 87.0592 341.731 1.10282L354.747 1.07412L354.715 1.08482Z" fill="url(#paint11_linear_33_1664)"/>
<path d="M385.261 1.01747C383.157 87.5722 346.98 169.504 386.32 250.014C412.117 302.799 455.063 341.568 452.568 404.812C449.358 486.277 403.043 562.874 367.43 631.112C332.759 697.541 289.779 768.73 283.263 844.633C277.68 909.669 322.549 953.334 345.463 1009.39C355.836 1034.75 364.415 1060.86 376.379 1085.36C389.454 1112.13 406.002 1129.05 426.437 1149.68C475.697 1199.42 447.415 1301.34 445.433 1361.52L441.417 1361.53C443.867 1301.44 473.073 1199.81 424.036 1149.8C403.324 1128.67 385.744 1111.38 371.649 1084.5C358.76 1059.92 349.129 1033.66 338.097 1008.03C314.057 952.162 270.588 907.304 276.203 842.044C282.698 766.577 324.649 695.922 358.683 629.59C393.542 561.651 438.455 485.292 440.338 404.382C441.813 341.31 399.238 302.179 373.505 249.33C334.249 168.713 369.472 87.4854 372.756 1.02379L385.272 0.996191L385.261 1.01747Z" fill="url(#paint12_linear_33_1664)"/>
<path d="M415.797 0.950161C414.895 87.9168 373.527 172.56 411.839 253.891C436.808 306.891 480.592 344.967 476.864 408.213C472.071 489.555 424.203 565.538 387.718 633.31C352.312 699.072 308.12 770.04 301.424 845.783C295.743 909.98 342.223 951.59 361.197 1008.44C369.496 1033.3 375.036 1059.12 384.62 1083.36C395.283 1110.35 409.737 1126.56 429.692 1146.55C479.909 1196.86 455.508 1299.84 454.316 1361.52L450.873 1361.52C452.205 1300.61 478.541 1198 428.718 1148.09C408.667 1127.99 393.681 1111.56 382.094 1084.82C371.554 1060.49 364.803 1034.54 355.61 1009.54C334.884 953.137 288.573 910.963 294.243 846.479C300.928 770.385 345.108 699.003 380.524 632.816C417.019 564.607 464.885 488.188 469.677 406.443C473.384 343.09 429.844 304.801 404.196 252.058C364.929 171.314 403.037 87.8898 403.781 0.987285L415.787 0.960814L415.797 0.950161Z" fill="url(#paint13_linear_33_1664)"/>
<path d="M446.343 0.882796C446.049 55.4902 434.467 103.096 422.022 154.701C412.936 192.372 414.615 226.215 429.961 261.653C453.466 315.932 497.29 352.817 493.149 416.841C488.002 496.472 440.171 569.946 403.288 635.593C367.929 698.527 323.572 766.891 317.327 840.38C311.901 904.321 360.203 943.461 376.118 1000.97C382.93 1025.58 385.685 1051.08 392.603 1075.51C400.591 1103.69 413.855 1120.18 431.499 1142.5C478.294 1201.67 466.903 1292.67 464.781 1361.51L460.435 1361.52C462.319 1295.37 478.96 1200.29 430.844 1144.29C412.395 1122.81 398.685 1106.59 389.677 1078.88C381.772 1054.55 377.933 1028.97 370.643 1004.31C353.687 946.909 306.042 907.066 311.564 842.912C317.966 768.487 362.246 699.029 397.634 634.926C434.366 568.364 482.195 493.837 487.202 413.463C491.173 349.653 447.412 312.363 423.271 258.522C407.618 223.605 404.388 189.819 412.433 152.075C423.254 101.303 434.455 54.2614 434.815 0.940103L446.322 0.914733L446.343 0.882796Z" fill="url(#paint14_linear_33_1664)"/>
<path d="M476.88 0.815468C476.658 59.0688 463.879 108.58 446.976 162.416C435.181 199.977 432.419 234.18 446.834 271.321C468.237 326.498 512.474 362.574 507.866 426.652C502.309 503.807 454.439 573.943 417.188 636.551C381.949 695.807 337.298 760.759 331.461 831.303C326.214 894.765 377.135 931.592 389.79 989.583C395.199 1014.39 395.436 1039.85 399.868 1064.66C405.15 1094.23 417.164 1112.01 433.144 1136.45C476.555 1202.84 480.393 1285.99 478.424 1361.46L473.197 1361.47C475.341 1288.3 477.171 1202.8 432.576 1138.82C416.065 1115.14 403.596 1097.91 397.338 1068.86C392.035 1044.21 390.906 1018.76 384.997 994.069C371.174 936.219 321.239 898.613 326.549 834.928C332.522 763.257 377.053 696.987 412.354 636.328C449.474 572.53 497.32 501.107 502.726 422.985C507.164 358.855 463.107 322.533 440.887 267.635C426.112 231.143 427.237 197.114 438.056 159.523C453.324 106.498 465.647 57.743 465.883 0.829084L476.89 0.804815L476.88 0.815468Z" fill="url(#paint15_linear_33_1664)"/>
<path d="M507.426 0.748125C507.128 62.9454 492.867 114.883 471.348 170.973C456.949 208.507 449.408 243.412 462.626 282.576C481.428 338.268 526.365 373.939 521.245 437.465C515.278 511.559 467.272 577.667 429.726 636.513C394.71 691.399 349.657 752.313 344.184 819.358C339.074 881.97 392.934 916.909 402.433 975.141C406.569 1000.5 404.405 1026.15 406.522 1051.49C409.13 1082.64 419.767 1102.24 434.647 1128.84C475.075 1201.11 495.447 1280.18 494.563 1361.43L488.762 1361.44C490.107 1282.09 475.523 1201.97 434.132 1131.61C418.924 1105.76 407.811 1086.83 404.28 1056.24C401.388 1031.1 402.734 1005.54 398.174 980.402C387.601 922.236 334.781 886.678 339.933 823.737C345.531 755.437 390.422 693.067 425.529 636.618C462.977 576.401 510.937 508.837 516.764 433.637C521.702 369.857 477.03 334.1 457.294 278.548C443.642 240.108 449.505 205.473 463.022 167.94C482.949 112.631 496.67 61.5865 496.929 0.77127L507.426 0.748125Z" fill="url(#paint16_linear_33_1664)"/>
<path d="M537.961 0.680794C537.438 67.0774 521.43 121.858 495.209 180.221C478.314 217.836 465.739 253.74 477.485 295.129C493.344 350.998 539.152 386.667 533.51 449.152C527.142 519.771 478.956 581.33 441.177 635.839C406.533 685.824 360.96 742.179 355.851 805.343C350.875 866.828 407.803 900.092 414.349 958.447C417.286 984.59 412.785 1010.61 412.757 1036.59C412.723 1069.46 421.887 1091.19 436.082 1120.07C474.152 1197.52 511.722 1275.07 512.614 1361.39L506.537 1361.4C506.286 1276.69 474.378 1198.84 435.621 1123.05C421.237 1094.93 411.586 1073.92 410.75 1041.62C410.087 1015.86 413.834 989.977 410.515 964.111C403.023 905.789 347.115 871.992 352.132 810.114C357.355 745.642 402.755 687.746 437.533 636.113C475.245 580.126 523.364 517.037 529.613 445.238C535.073 382.371 489.563 346.743 472.716 290.898C460.45 250.255 471.358 214.705 487.457 177.124C512.128 119.518 527.533 65.6961 527.974 0.702814L537.972 0.680771L537.961 0.680794Z" fill="url(#paint17_linear_33_1664)"/>
<path d="M568.508 0.613464C567.644 71.4329 549.603 129.343 518.67 190.013C499.384 227.846 481.616 264.952 491.604 308.694C504.35 364.474 551.062 400.492 544.917 461.586C538.18 528.496 489.791 585.122 451.875 634.88C417.793 679.602 371.571 731.026 366.846 790.054C364.685 817.028 374.075 840.17 390.504 860.671C410.044 885.056 423.78 908.475 425.837 940.308C427.586 967.326 421.036 994 418.757 1020.59C415.795 1055.1 423.828 1079.48 437.517 1110.55C473.941 1193.19 528.925 1270.37 531.93 1361.35L525.832 1361.37C523.509 1271.81 473.933 1194.56 437.078 1113.57C423.273 1083.26 414.774 1059.61 416.909 1025.66C418.572 999.268 424.421 972.775 422.301 946.056C419.798 914.479 406.147 891.166 386.894 866.791C370.369 845.865 361.296 822.201 363.488 794.898C368.338 734.562 414.344 681.576 448.624 635.185C486.506 583.918 534.837 525.728 541.455 457.649C547.45 396.099 501.015 360.218 487.292 304.388C476.721 261.391 492.864 224.671 511.417 186.925C540.885 126.97 558.27 70.0504 559.02 0.634383L568.508 0.613464Z" fill="url(#paint18_linear_33_1664)"/>
<path d="M599.044 0.546135C597.733 75.9482 577.437 137.169 541.802 200.167C520.19 238.377 497.166 276.802 505.14 322.94C514.74 378.451 562.325 415.104 555.688 474.594C548.645 537.721 500.043 589.192 462.094 633.944C428.819 673.189 381.81 719.448 377.511 774.235C375.475 800.134 385.987 821.541 402.009 840.619C422.484 865.001 436.498 888.878 437.165 921.5C437.737 949.541 428.893 976.794 424.682 1004.06C419.078 1040.35 425.533 1067.13 438.983 1100.66C459.592 1152.02 484.631 1198.29 513.526 1244.63C536.941 1282.19 549.449 1317.03 551.874 1361.29L545.977 1361.3C543.862 1317.83 532.299 1282.51 510.297 1244.93C483.41 1198.99 459.074 1153.4 438.544 1103.57C425.031 1070.77 418.11 1044.7 422.929 1008.93C426.577 981.859 434.752 954.777 433.83 927.035C432.749 894.637 418.821 870.909 398.633 846.526C382.483 827.023 372.319 805.105 374.387 778.876C378.821 722.835 425.582 675.035 459.12 634.174C497.065 587.934 545.61 534.932 552.566 470.7C559.064 410.721 511.724 374.28 501.2 318.676C492.6 273.251 514.074 235.212 535.016 197.131C569.282 134.838 588.891 74.607 590.066 0.56593L599.055 0.546112L599.044 0.546135Z" fill="url(#paint19_linear_33_1664)"/>
<path d="M629.59 0.47879C627.748 80.5911 605.004 145.219 564.699 210.545C540.794 249.291 512.524 289.078 518.262 337.602C524.791 392.864 572.94 430.133 566.055 488.082C559.004 547.446 509.891 593.869 472.144 633.422C439.95 667.158 392.027 708.158 388.228 758.723C386.36 783.527 398.112 803.188 413.674 820.831C434.902 844.883 449.778 869.703 448.64 902.882C447.632 932.043 436.844 959.641 430.733 987.654C422.445 1025.67 427.258 1054.78 440.566 1090.83C461.409 1147.3 488.738 1196.33 524.499 1243.69C552.737 1281.07 568.365 1314.1 571.848 1361.27L566.344 1361.28C563.15 1314.95 548.371 1281.39 521.472 1243.95C487.612 1196.81 460.912 1148.61 440.125 1093.54C426.777 1058.19 421.508 1029.73 429.043 992.176C434.634 964.334 444.784 936.875 445.432 908.002C446.167 875.005 431.376 850.365 410.413 826.26C394.712 808.223 383.321 788.083 385.241 762.971C389.186 711.247 436.841 668.781 469.371 633.524C507.147 592.568 556.235 544.688 563.221 484.315C569.977 425.92 522.041 388.873 514.662 333.517C508.288 285.654 535.103 246.242 558.371 207.657C597.371 142.972 619.415 79.2914 621.101 0.497507L629.579 0.478814L629.59 0.47879Z" fill="url(#paint20_linear_33_1664)"/>
<path d="M660.126 0.411469C657.751 84.4262 632.965 152.694 588.318 219.677C562.383 258.587 528.793 299.746 530.965 349.926C533.496 408.577 587.026 448.046 575.09 508.706C564.74 561.305 518.321 600.399 482.291 633.665C451.987 661.647 403.426 697.588 399.245 743.296C396.817 769.823 413.145 788.305 429.472 805.936C451.199 829.402 463.613 855.567 460.211 888.283C457.1 918.203 444.071 945.944 436.357 974.482C425.523 1014.56 430.281 1047.23 443.796 1086.12C464.658 1146.16 494.36 1197.16 536.007 1243.86C568.684 1280.52 586.783 1311.45 591.153 1361.23L586.202 1361.25C582.068 1312.29 564.68 1280.8 533.213 1244.03C493.277 1197.35 464.107 1147.21 443.312 1088.39C429.809 1050.17 424.617 1018.08 434.708 978.461C441.934 950.074 454.368 922.419 457.086 892.744C460.075 860.146 447.692 834.108 426.178 810.61C409.67 792.575 393.797 773.752 396.288 746.895C400.626 700.145 448.908 662.876 479.613 633.533C515.715 599.023 562.12 558.654 572.436 505.193C584.244 444.066 530.948 404.905 527.589 346.107C524.749 296.534 557.022 255.708 582.362 217.001C625.831 150.584 649.928 83.2104 652.147 0.429061L660.126 0.411469Z" fill="url(#paint21_linear_33_1664)"/>
<path d="M690.672 0.344101C687.691 89.048 660.267 160.798 611.099 229.98C582.86 269.714 544.332 312.107 543.863 364.503C543.344 422.768 597.694 463.33 585.309 522.386C574.92 571.934 528.512 606.276 492.834 635.003C464.494 657.824 414.169 689.134 411.053 730.886C409.154 756.306 426.956 773.413 442.685 789.696C465.155 812.947 477.655 839.495 472.628 872.513C467.936 903.276 452.57 931.224 442.976 960.223C429.192 1001.86 432.275 1036.58 445.775 1078.07C466.764 1142.57 498.312 1197.03 546.333 1243.55C559.397 1256.21 573.258 1268.24 584.17 1282.86C602.051 1306.83 606.431 1332.12 609.247 1361.17L604.976 1361.18C602.246 1332.41 597.919 1307.25 580.654 1283.25C570.081 1268.58 556.625 1256.34 543.878 1243.57C497.388 1196.96 466.255 1143.37 445.28 1079.93C431.771 1039.07 428.263 1004.83 441.315 963.543C450.453 934.641 465.234 906.726 469.523 876.144C474.147 843.191 461.657 816.708 439.357 793.392C423.447 776.759 406.101 759.406 408.084 733.688C411.369 691.043 461.425 658.522 490.208 634.541C525.98 604.74 572.407 569.261 582.794 519.011C595.072 459.594 540.924 419.297 540.711 360.96C540.522 309.096 577.85 266.983 605.526 227.473C653.601 158.835 680.357 87.9055 683.192 0.360593L690.672 0.344101Z" fill="url(#paint22_linear_33_1664)"/>
<path d="M721.219 0.276749C717.621 93.6486 687.495 168.721 633.912 240.039C603.37 280.692 560.042 324.105 556.847 378.634C553.437 436.799 608.523 478.315 595.848 536.213C585.56 583.178 539.323 613.183 504.092 637.805C477.687 656.254 426.3 682.846 423.984 721.194C422.528 745.434 442.189 761.867 457.203 776.78C480.288 799.711 492.82 826.312 486.03 859.387C479.575 890.802 461.787 918.681 450.249 947.929C433.333 990.816 434.635 1027.3 448.013 1071.31C468.862 1139.9 501.874 1198.06 555.865 1243.9C570.161 1256.03 585.506 1267.19 597.735 1281.51C617.996 1305.21 622.462 1331 625.45 1361.15L621.955 1361.16C618.988 1331.24 614.512 1305.57 594.771 1281.78C582.829 1267.39 567.802 1256.02 553.782 1243.76C501.119 1197.72 468.396 1140.42 447.485 1072.72C434.066 1029.27 432.35 993.168 448.533 950.537C459.615 921.333 476.85 893.402 482.88 862.115C489.256 829.031 476.724 802.398 453.766 779.392C438.592 764.182 419.356 747.631 420.928 723.136C423.434 684.054 474.596 656.409 501.455 637.025C536.801 611.519 583.089 580.569 593.418 533.062C606.05 474.94 551.124 433.636 553.886 375.473C556.455 321.424 598.7 278.215 628.711 237.787C681.275 166.927 710.776 92.6007 714.238 0.292139L721.208 0.276772L721.219 0.276749Z" fill="url(#paint23_linear_33_1664)"/>
<path d="M751.754 0.209427C747.56 98.1323 714.732 176.389 656.829 249.715C623.994 291.287 576.046 335.54 570.061 392.041C563.868 450.489 619.668 492.748 606.896 550.082C596.869 595.049 551.081 621.31 516.299 642.424C491.905 657.232 439.68 679.575 438.334 715.04C437.451 738.247 458.938 754.474 473.344 768.23C496.874 790.703 509.374 816.889 500.628 849.766C492.166 881.558 471.848 909.007 458.291 938.249C438.009 981.972 437.413 1019.84 450.499 1066.25C470.856 1138.41 504.811 1200.45 564.271 1245.13C579.596 1256.64 596.215 1266.79 609.569 1280.65C631.943 1303.88 636.187 1330.13 639.113 1361.12L636.457 1361.12C633.499 1330.28 629.17 1304.13 607.221 1280.78C594.09 1266.81 577.715 1256.44 562.591 1244.78C504.247 1199.83 470.431 1138.61 449.937 1067.16C436.768 1021.24 436.95 983.633 456.5 940.049C469.621 910.787 489.396 883.212 497.412 851.474C505.733 818.534 493.212 792.21 469.766 769.63C455.243 755.652 434.138 739.424 435.149 716.014C436.716 679.985 488.791 656.793 513.608 641.282C548.484 619.488 594.399 592.492 604.488 547.154C617.27 489.755 561.61 447.634 567.229 389.284C572.62 333.188 619.612 289.097 651.958 247.717C708.959 174.796 741.215 97.2002 745.283 0.223693L751.754 0.209427Z" fill="url(#paint24_linear_33_1664)"/>
</g>
<defs>
<linearGradient id="paint0_linear_33_1664" x1="297.812" y1="681.53" x2="1.70717" y2="682.183" gradientUnits="userSpaceOnUse">
<stop stop-color="#161616"/>
<stop offset="1" stop-color="#9E9E9E" stop-opacity="0.37"/>
</linearGradient>
<linearGradient id="paint1_linear_33_1664" x1="307.062" y1="681.51" x2="32.7539" y2="682.114" gradientUnits="userSpaceOnUse">
<stop stop-color="#161616"/>
<stop offset="1" stop-color="#9E9E9E" stop-opacity="0.37"/>
</linearGradient>
<linearGradient id="paint2_linear_33_1664" x1="318.246" y1="681.485" x2="63.7987" y2="682.046" gradientUnits="userSpaceOnUse">
<stop stop-color="#161616"/>
<stop offset="1" stop-color="#9E9E9E" stop-opacity="0.37"/>
</linearGradient>
<linearGradient id="paint3_linear_33_1664" x1="331.334" y1="681.467" x2="94.8132" y2="681.988" gradientUnits="userSpaceOnUse">
<stop stop-color="#161616"/>
<stop offset="1" stop-color="#9E9E9E" stop-opacity="0.37"/>
</linearGradient>
<linearGradient id="paint4_linear_33_1664" x1="345.89" y1="681.435" x2="125.802" y2="681.92" gradientUnits="userSpaceOnUse">
<stop stop-color="#161616"/>
<stop offset="1" stop-color="#9E9E9E" stop-opacity="0.37"/>
</linearGradient>
<linearGradient id="paint5_linear_33_1664" x1="361.333" y1="681.385" x2="156.47" y2="681.836" gradientUnits="userSpaceOnUse">
<stop stop-color="#161616"/>
<stop offset="1" stop-color="#9E9E9E" stop-opacity="0.37"/>
</linearGradient>
<linearGradient id="paint6_linear_33_1664" x1="377.277" y1="681.344" x2="183.542" y2="681.771" gradientUnits="userSpaceOnUse">
<stop stop-color="#161616"/>
<stop offset="1" stop-color="#9E9E9E" stop-opacity="0.37"/>
</linearGradient>
<linearGradient id="paint7_linear_33_1664" x1="393.15" y1="681.33" x2="198.549" y2="681.759" gradientUnits="userSpaceOnUse">
<stop stop-color="#161616"/>
<stop offset="1" stop-color="#9E9E9E" stop-opacity="0.37"/>
</linearGradient>
<linearGradient id="paint8_linear_33_1664" x1="408.448" y1="681.291" x2="213.149" y2="681.722" gradientUnits="userSpaceOnUse">
<stop stop-color="#161616"/>
<stop offset="1" stop-color="#9E9E9E" stop-opacity="0.37"/>
</linearGradient>
<linearGradient id="paint9_linear_33_1664" x1="422.679" y1="681.249" x2="227.77" y2="681.679" gradientUnits="userSpaceOnUse">
<stop stop-color="#161616"/>
<stop offset="1" stop-color="#9E9E9E" stop-opacity="0.37"/>
</linearGradient>
<linearGradient id="paint10_linear_33_1664" x1="435.344" y1="681.232" x2="242.782" y2="681.657" gradientUnits="userSpaceOnUse">
<stop stop-color="#161616"/>
<stop offset="1" stop-color="#9E9E9E" stop-opacity="0.37"/>
</linearGradient>
<linearGradient id="paint11_linear_33_1664" x1="445.972" y1="681.198" x2="258.531" y2="681.611" gradientUnits="userSpaceOnUse">
<stop stop-color="#161616"/>
<stop offset="1" stop-color="#9E9E9E" stop-opacity="0.37"/>
</linearGradient>
<linearGradient id="paint12_linear_33_1664" x1="454.064" y1="681.175" x2="275.328" y2="681.569" gradientUnits="userSpaceOnUse">
<stop stop-color="#161616"/>
<stop offset="1" stop-color="#9E9E9E" stop-opacity="0.37"/>
</linearGradient>
<linearGradient id="paint13_linear_33_1664" x1="477.706" y1="681.139" x2="293.378" y2="681.545" gradientUnits="userSpaceOnUse">
<stop stop-color="#161616"/>
<stop offset="1" stop-color="#9E9E9E" stop-opacity="0.37"/>
</linearGradient>
<linearGradient id="paint14_linear_33_1664" x1="494.024" y1="681.113" x2="310.742" y2="681.517" gradientUnits="userSpaceOnUse">
<stop stop-color="#161616"/>
<stop offset="1" stop-color="#9E9E9E" stop-opacity="0.37"/>
</linearGradient>
<linearGradient id="paint15_linear_33_1664" x1="508.781" y1="681.065" x2="325.796" y2="681.468" gradientUnits="userSpaceOnUse">
<stop stop-color="#161616"/>
<stop offset="1" stop-color="#9E9E9E" stop-opacity="0.37"/>
</linearGradient>
<linearGradient id="paint16_linear_33_1664" x1="522.208" y1="681.041" x2="339.248" y2="681.444" gradientUnits="userSpaceOnUse">
<stop stop-color="#161616"/>
<stop offset="1" stop-color="#9E9E9E" stop-opacity="0.37"/>
</linearGradient>
<linearGradient id="paint17_linear_33_1664" x1="539.472" y1="681.002" x2="351.513" y2="681.417" gradientUnits="userSpaceOnUse">
<stop stop-color="#161616"/>
<stop offset="1" stop-color="#9E9E9E" stop-opacity="0.37"/>
</linearGradient>
<linearGradient id="paint18_linear_33_1664" x1="570.008" y1="680.94" x2="362.897" y2="681.397" gradientUnits="userSpaceOnUse">
<stop stop-color="#161616"/>
<stop offset="1" stop-color="#9E9E9E" stop-opacity="0.37"/>
</linearGradient>
<linearGradient id="paint19_linear_33_1664" x1="600.555" y1="680.863" x2="373.891" y2="681.362" gradientUnits="userSpaceOnUse">
<stop stop-color="#161616"/>
<stop offset="1" stop-color="#9E9E9E" stop-opacity="0.37"/>
</linearGradient>
<linearGradient id="paint20_linear_33_1664" x1="631.09" y1="680.806" x2="384.838" y2="681.349" gradientUnits="userSpaceOnUse">
<stop stop-color="#161616"/>
<stop offset="1" stop-color="#9E9E9E" stop-opacity="0.37"/>
</linearGradient>
<linearGradient id="paint21_linear_33_1664" x1="661.626" y1="680.744" x2="395.872" y2="681.33" gradientUnits="userSpaceOnUse">
<stop stop-color="#161616"/>
<stop offset="1" stop-color="#9E9E9E" stop-opacity="0.37"/>
</linearGradient>
<linearGradient id="paint22_linear_33_1664" x1="692.172" y1="680.666" x2="407.804" y2="681.293" gradientUnits="userSpaceOnUse">
<stop stop-color="#161616"/>
<stop offset="1" stop-color="#9E9E9E" stop-opacity="0.37"/>
</linearGradient>
<linearGradient id="paint23_linear_33_1664" x1="722.719" y1="680.604" x2="420.739" y2="681.27" gradientUnits="userSpaceOnUse">
<stop stop-color="#161616"/>
<stop offset="1" stop-color="#9E9E9E" stop-opacity="0.37"/>
</linearGradient>
<linearGradient id="paint24_linear_33_1664" x1="753.254" y1="680.536" x2="435.034" y2="681.238" gradientUnits="userSpaceOnUse">
<stop stop-color="#161616"/>
<stop offset="1" stop-color="#9E9E9E" stop-opacity="0.37"/>
</linearGradient>
<clipPath id="clip0_33_1664">
<rect width="1360.65" height="751.549" fill="white" transform="translate(751.754 0.209427) rotate(89.8737)"/>
</clipPath>
</defs>
</svg>
