<svg width="1080" height="282" viewBox="0 0 1080 282" fill="none" xmlns="http://www.w3.org/2000/svg">
<g clip-path="url(#clip0_117_2)">
<path d="M154.013 278.73H129.827L32.5514 131.222V278.73H8.36545V93.2155H32.5514L129.827 240.458V93.2155H154.013V278.73ZM304.743 237.534H223.946L209.063 278.73H183.548L250.524 94.5444H278.431L345.142 278.73H319.627L304.743 237.534ZM297.833 217.866L264.345 124.312L230.857 217.866H297.833ZM483.833 237.534H403.036L388.153 278.73H362.638L429.614 94.5444H457.521L524.232 278.73H498.717L483.833 237.534ZM476.923 217.866L443.435 124.312L409.947 217.866H476.923ZM544.386 185.973C544.386 167.9 548.461 151.687 556.611 137.335C564.762 122.806 575.836 111.466 589.834 103.315C604.009 95.1646 619.69 91.0893 636.877 91.0893C657.076 91.0893 674.706 95.9619 689.767 105.707C704.828 115.452 715.814 129.273 722.724 147.169H693.754C688.616 136.006 681.174 127.413 671.428 121.388C661.86 115.364 650.343 112.352 636.877 112.352C623.942 112.352 612.337 115.364 602.06 121.388C591.783 127.413 583.721 136.006 577.874 147.169C572.027 158.154 569.103 171.089 569.103 185.973C569.103 200.679 572.027 213.614 577.874 224.777C583.721 235.762 591.783 244.267 602.06 250.292C612.337 256.316 623.942 259.328 636.877 259.328C650.343 259.328 661.86 256.404 671.428 250.557C681.174 244.533 688.616 235.939 693.754 224.777H722.724C715.814 242.495 704.828 256.227 689.767 265.973C674.706 275.541 657.076 280.325 636.877 280.325C619.69 280.325 604.009 276.338 589.834 268.365C575.836 260.214 564.762 248.963 556.611 234.61C548.461 220.258 544.386 204.046 544.386 185.973ZM762.448 93.4813H789.291L763.777 153.813H746.767L762.448 93.4813ZM926.367 237.534H845.57L830.687 278.73H805.172L872.148 94.5444H900.055L966.766 278.73H941.251L926.367 237.534ZM919.457 217.866L885.969 124.312L852.481 217.866H919.457ZM999.677 93.4813H1026.52L1001.01 153.813H983.996L999.677 93.4813Z" fill="#CC3333"/>
</g>
<defs>
<clipPath id="clip0_117_2">
<rect width="1080" height="282" fill="white"/>
</clipPath>
</defs>
</svg>
