<svg width="331" height="34" viewBox="0 0 331 34" fill="none" xmlns="http://www.w3.org/2000/svg">
<rect x="255.649" y="18.1169" width="3" height="43" rx="1.5" transform="rotate(-90 255.649 18.1169)" fill="url(#paint0_linear_22_44)"/>
<rect x="314.649" y="18.1169" width="3" height="16" rx="1.5" transform="rotate(-90 314.649 18.1169)" fill="url(#paint1_linear_22_44)"/>
<circle cx="16.5584" cy="16.5584" r="16.5584" transform="rotate(-90 16.5584 16.5584)" fill="url(#paint2_linear_22_44)"/>
<rect x="30.6494" y="18.7466" width="3" height="209" rx="1.5" transform="rotate(-90 30.6494 18.7466)" fill="url(#paint3_linear_22_44)"/>
<path d="M19.5907 12.2613H13.8681V15.2816C14.1153 14.9754 14.4686 14.7281 14.9278 14.5397C15.387 14.3396 15.8757 14.2395 16.3938 14.2395C17.3358 14.2395 18.107 14.4455 18.7075 14.8577C19.3081 15.2698 19.7437 15.7997 20.0145 16.4473C20.2854 17.0831 20.4208 17.7661 20.4208 18.4961C20.4208 19.8502 20.0322 20.9394 19.2551 21.7636C18.4897 22.5879 17.3946 23 15.9699 23C14.6275 23 13.556 22.6644 12.7553 21.9932C11.9546 21.3221 11.5013 20.4448 11.3953 19.3616H13.7974C13.9034 19.8326 14.1389 20.2094 14.5039 20.4919C14.8807 20.7745 15.3576 20.9158 15.9345 20.9158C16.6293 20.9158 17.1532 20.698 17.5065 20.2623C17.8597 19.8267 18.0364 19.2497 18.0364 18.5314C18.0364 17.8014 17.8539 17.248 17.4888 16.8712C17.1356 16.4826 16.6116 16.2883 15.9169 16.2883C15.4223 16.2883 15.0102 16.4119 14.6805 16.6592C14.3508 16.9065 14.1153 17.2362 13.974 17.6483H11.6073V10.0888H19.5907V12.2613Z" fill="white"/>
<defs>
<linearGradient id="paint0_linear_22_44" x1="255.974" y1="69.3031" x2="260.669" y2="69.1171" gradientUnits="userSpaceOnUse">
<stop stop-color="#410DFF"/>
<stop offset="0.45" stop-color="#D900D5"/>
<stop offset="0.75" stop-color="#FF5E4F"/>
<stop offset="1" stop-color="#FFCD9E"/>
</linearGradient>
<linearGradient id="paint1_linear_22_44" x1="314.974" y1="37.1629" x2="319.624" y2="36.6679" gradientUnits="userSpaceOnUse">
<stop stop-color="#410DFF"/>
<stop offset="0.45" stop-color="#D900D5"/>
<stop offset="0.75" stop-color="#FF5E4F"/>
<stop offset="1" stop-color="#FFCD9E"/>
</linearGradient>
<linearGradient id="paint2_linear_22_44" x1="3.57876" y1="39.4216" x2="42.8424" y2="17.1314" gradientUnits="userSpaceOnUse">
<stop stop-color="#410DFF"/>
<stop offset="0.45" stop-color="#D900D5"/>
<stop offset="0.75" stop-color="#FF5E4F"/>
<stop offset="1" stop-color="#FFCD9E"/>
</linearGradient>
<linearGradient id="paint3_linear_22_44" x1="30.9736" y1="267.535" x2="35.6764" y2="267.497" gradientUnits="userSpaceOnUse">
<stop stop-color="#410DFF"/>
<stop offset="0.45" stop-color="#D900D5"/>
<stop offset="0.75" stop-color="#FF5E4F"/>
<stop offset="1" stop-color="#FFCD9E"/>
</linearGradient>
</defs>
</svg>
