<svg width="331" height="34" viewBox="0 0 331 34" fill="none" xmlns="http://www.w3.org/2000/svg">
<rect x="255.649" y="18.1169" width="3" height="43" rx="1.5" transform="rotate(-90 255.649 18.1169)" fill="url(#paint0_linear_22_2)"/>
<rect x="314.649" y="18.1169" width="3" height="16" rx="1.5" transform="rotate(-90 314.649 18.1169)" fill="url(#paint1_linear_22_2)"/>
<circle cx="16.5584" cy="16.5584" r="16.5584" transform="rotate(-90 16.5584 16.5584)" fill="url(#paint2_linear_22_2)"/>
<rect x="30.6494" y="18.7466" width="3" height="209" rx="1.5" transform="rotate(-90 30.6494 18.7466)" fill="url(#paint3_linear_22_2)"/>
<path d="M11.7132 20.2094C12.8436 19.2674 13.7444 18.4843 14.4156 17.8603C15.0868 17.2244 15.6461 16.565 16.0935 15.8821C16.541 15.1991 16.7647 14.528 16.7647 13.8686C16.7647 13.2681 16.6234 12.7971 16.3408 12.4556C16.0582 12.1141 15.6225 11.9434 15.0338 11.9434C14.445 11.9434 13.9917 12.1435 13.6738 12.5439C13.3558 12.9325 13.191 13.4682 13.1792 14.1512H10.7771C10.8242 12.7382 11.2423 11.6667 12.0312 10.9366C12.8319 10.2066 13.8445 9.84156 15.0691 9.84156C16.4114 9.84156 17.4417 10.2007 18.16 10.919C18.8783 11.6255 19.2374 12.5616 19.2374 13.7273C19.2374 14.6457 18.9901 15.5229 18.4956 16.359C18.001 17.195 17.4358 17.925 16.8 18.5491C16.1642 19.1614 15.334 19.9032 14.3096 20.7745H19.52V22.8234H10.7948V20.9865L11.7132 20.2094Z" fill="white"/>
<defs>
<linearGradient id="paint0_linear_22_2" x1="255.974" y1="69.3031" x2="260.669" y2="69.1171" gradientUnits="userSpaceOnUse">
<stop stop-color="#410DFF"/>
<stop offset="0.45" stop-color="#D900D5"/>
<stop offset="0.75" stop-color="#FF5E4F"/>
<stop offset="1" stop-color="#FFCD9E"/>
</linearGradient>
<linearGradient id="paint1_linear_22_2" x1="314.974" y1="37.1629" x2="319.624" y2="36.6679" gradientUnits="userSpaceOnUse">
<stop stop-color="#410DFF"/>
<stop offset="0.45" stop-color="#D900D5"/>
<stop offset="0.75" stop-color="#FF5E4F"/>
<stop offset="1" stop-color="#FFCD9E"/>
</linearGradient>
<linearGradient id="paint2_linear_22_2" x1="3.57876" y1="39.4216" x2="42.8424" y2="17.1314" gradientUnits="userSpaceOnUse">
<stop stop-color="#410DFF"/>
<stop offset="0.45" stop-color="#D900D5"/>
<stop offset="0.75" stop-color="#FF5E4F"/>
<stop offset="1" stop-color="#FFCD9E"/>
</linearGradient>
<linearGradient id="paint3_linear_22_2" x1="30.9736" y1="267.535" x2="35.6764" y2="267.497" gradientUnits="userSpaceOnUse">
<stop stop-color="#410DFF"/>
<stop offset="0.45" stop-color="#D900D5"/>
<stop offset="0.75" stop-color="#FF5E4F"/>
<stop offset="1" stop-color="#FFCD9E"/>
</linearGradient>
</defs>
</svg>
