<svg width="34" height="246" viewBox="0 0 34 246" fill="none" xmlns="http://www.w3.org/2000/svg">
<rect x="15" y="192" width="3" height="31" rx="1.5" fill="url(#paint0_linear_23_222)"/>
<rect x="15" y="235" width="3" height="11" rx="1.5" fill="url(#paint1_linear_23_222)"/>
<rect x="14" y="31" width="3" height="150" rx="1.5" fill="url(#paint2_linear_23_222)"/>
<circle cx="16.5584" cy="16.5584" r="16.5584" fill="url(#paint3_linear_23_222)"/>
<path d="M11.3301 19.9075V17.9646L17.1057 9.69864L19.9847 9.69864L19.9847 17.7527H21.539V19.9075H19.9847V22.4155L17.5119 22.4155V19.9075H11.3301ZM17.6709 12.348L14.0501 17.7527H17.6709L17.6709 12.348Z" fill="white"/>
<defs>
<linearGradient id="paint0_linear_23_222" x1="15.3242" y1="228.902" x2="20.0132" y2="228.644" gradientUnits="userSpaceOnUse">
<stop stop-color="#410DFF"/>
<stop offset="0.45" stop-color="#D900D5"/>
<stop offset="0.75" stop-color="#FF5E4F"/>
<stop offset="1" stop-color="#FFCD9E"/>
</linearGradient>
<linearGradient id="paint1_linear_23_222" x1="15.3242" y1="248.094" x2="19.9172" y2="247.383" gradientUnits="userSpaceOnUse">
<stop stop-color="#410DFF"/>
<stop offset="0.45" stop-color="#D900D5"/>
<stop offset="0.75" stop-color="#FF5E4F"/>
<stop offset="1" stop-color="#FFCD9E"/>
</linearGradient>
<linearGradient id="paint2_linear_23_222" x1="14.3242" y1="209.556" x2="19.0267" y2="209.503" gradientUnits="userSpaceOnUse">
<stop stop-color="#410DFF"/>
<stop offset="0.45" stop-color="#D900D5"/>
<stop offset="0.75" stop-color="#FF5E4F"/>
<stop offset="1" stop-color="#FFCD9E"/>
</linearGradient>
<linearGradient id="paint3_linear_23_222" x1="3.57876" y1="39.4216" x2="42.8424" y2="17.1314" gradientUnits="userSpaceOnUse">
<stop stop-color="#410DFF"/>
<stop offset="0.45" stop-color="#D900D5"/>
<stop offset="0.75" stop-color="#FF5E4F"/>
<stop offset="1" stop-color="#FFCD9E"/>
</linearGradient>
</defs>
</svg>
