<svg width="1961" height="1084" viewBox="0 0 1961 1084" fill="none" xmlns="http://www.w3.org/2000/svg">
<g style="mix-blend-mode:multiply" opacity="0.1" clip-path="url(#clip0_33_1664)">
<path d="M0 1056.4C208.203 1047.9 391.143 938.583 552.19 829.51C592.636 802.116 632.315 773.971 671.643 745.611C700.874 724.526 732.479 699.826 769.401 693.379C825.029 683.671 855.639 728.89 879.248 768.948C909.613 820.445 935.428 875.893 982.323 915.476C1049.95 972.532 1135.2 972.21 1212.6 930.973C1322.36 872.493 1400.2 772.853 1502.95 708.156C1642.26 620.444 1811.75 671.574 1960.98 667.975V676.091C1812.68 678.235 1643.35 624.625 1504.55 712.183C1399.11 778.702 1322.46 883.947 1211.32 946.424C1132.68 990.632 1048.2 989.315 981.465 928.109C936.807 887.148 914.194 831.654 886.985 779.33C866.486 739.915 839.982 695.125 786.024 705.078C749.577 711.801 717.925 736.531 688.954 757.356C648.861 786.19 608.477 814.902 567.357 842.924C402.664 955.198 213.902 1073.2 0 1083.15V1056.4Z" fill="#9E9E9E"/>
<path d="M0 1012.39C200.252 1006.83 374.842 910.99 530.941 806.51C570.559 779.989 609.32 752.579 647.682 724.878C677.051 703.67 709.407 680.042 746.988 675.54C803.964 668.726 840.886 713.761 869.765 753.268C906.549 803.586 938.354 859.906 990.811 896.596C1062.33 946.607 1150.02 941.294 1226.02 901.986C1334 846.125 1413.04 751.966 1514.75 690.746C1649.25 609.787 1817.92 657.501 1960.98 652.816V662.019C1811.7 666.306 1642.41 616.555 1503.29 704.221C1402.27 767.876 1323.89 864.071 1215.16 920.239C1138.61 959.792 1052.8 961.354 984.422 907.192C935.749 868.634 907.637 813.263 874.882 762.348C848.853 721.877 815.316 676.474 758.325 686.075C720.974 692.369 689.292 717.022 659.785 738.338C620.994 766.345 581.789 794.076 541.803 820.996C383.268 927.788 204.25 1031.07 0 1038.41V1012.39Z" fill="#9E9E9E"/>
<path d="M0 968.367C190.156 966.315 355.11 886.474 505.233 788.15C543.749 762.93 581.345 736.653 618.404 709.963C649.168 687.806 682.351 664.576 721.633 660.242C783.19 653.459 828.017 698.555 864.004 739.027C907.438 787.859 946.305 843.858 1004.29 877.439C1077.98 920.116 1166.86 911.02 1241.3 874.224C1346.56 822.191 1425.26 734.831 1522.78 674.927C1653.71 594.505 1820.97 640.611 1960.98 635.757V645.772C1818.98 650.641 1650.75 603.723 1517.55 684.544C1417.67 745.152 1338.63 836.263 1231.77 890.317C1156.47 928.416 1068.27 935.23 995.851 888.357C941.127 852.939 906.442 796.756 866.885 747.081C835.08 707.13 794.864 662.065 736.049 668.864C697.779 673.274 665.131 696.748 635.211 718.339C597.416 745.627 559.146 772.562 520.002 798.532C366.462 900.439 195.977 989.56 0 993.664V968.367Z" fill="#9E9E9E"/>
<path d="M0 924.358C179.983 925.904 335.484 862.708 479.924 770.74C517.382 746.898 553.799 721.815 589.617 696.212C622.066 672.998 656.445 650.243 697.656 646.032C764.591 639.187 817.752 684.498 861.492 725.643C911.957 773.113 958.607 828.729 1022.8 858.911C1098.7 894.605 1188.66 880.854 1261.98 845.451C1364.37 796.021 1441.66 714.358 1535.23 655.373C1660.98 576.114 1825.78 621.409 1961.02 617.229V627.764C1822.92 632.404 1656.63 586.741 1527.82 666.72C1432.07 726.164 1353.87 810.89 1249.86 861.637C1175.97 897.698 1086.59 908.739 1011.92 869.216C951.253 837.105 909.031 781.275 862.518 733.07C823.16 692.277 774.687 647.104 710.847 653.918C670.739 658.191 637.08 681.221 605.597 703.838C569.088 730.054 532.028 755.81 493.988 780.433C346.408 875.954 185.682 948.506 0.0153203 948.965V924.404L0 924.358Z" fill="#9E9E9E"/>
<path d="M0 880.333C169.948 885.28 316.288 839.02 455.504 753.482C523.51 711.693 592.636 639.83 675.304 632.036C748.275 625.145 809.939 670.915 861.752 712.536C919.418 758.857 974.326 814.106 1045.11 840.704C1123.24 870.059 1213.86 850.81 1286.6 815.897C1386.03 768.167 1461.1 691.404 1550.92 632.97C1670.27 555.334 1831.88 600.415 1961.02 597.521V608.301C1828.43 611.961 1665.03 566.819 1542.08 645.389C1450.24 704.083 1373.88 783.419 1272.84 831.976C1199.86 867.057 1109.53 883.228 1032.6 850.535C965.425 821.976 915.036 766.544 861.277 719.626C813.861 678.25 756.808 632.756 687.177 639.631C605.551 647.686 535.414 720.942 468.587 762.854C326.629 851.898 175.341 907.33 0 904.175V880.333H0Z" fill="#9E9E9E"/>
<path d="M-0.000304688 836.324C161.782 844.241 300.753 814.014 436.046 733.514C506.765 691.45 574.511 621.624 660.949 617.076C738.025 613.018 806.155 658.39 864.31 699.259C927.629 743.743 989.385 796.251 1064.15 820.782C1144.69 847.197 1235.35 823.018 1309.15 788.12C1406.39 742.151 1480.39 670.318 1566 610.644C1678.13 532.503 1837.84 578.319 1960.98 577.063V587.859C1835.1 590.018 1675.15 544.876 1559.16 621.624C1471.07 679.904 1397.27 754.523 1299.25 801.672C1226.56 836.646 1135.89 858.727 1056.67 832.113C982.69 807.245 923.799 752.135 862.687 706.257C806.997 664.453 741.319 618.362 665.315 625.222C581.743 632.771 513.383 703.455 444.335 745.106C307.509 827.642 165.229 865.802 -0.015625 859.416V836.294L-0.000304688 836.324Z" fill="#9E9E9E"/>
<path d="M0.000367185 792.3C76.5713 797.384 153.969 800.875 229.131 786.619C295.744 773.986 357.316 747.219 414.767 714.496C488.136 672.707 554.289 605.147 643.147 601.227C726.719 597.537 802.877 643.95 868.739 685.218C938.952 729.211 1008.72 781.581 1090.13 802.866C1173.78 824.733 1262.98 793.862 1337.66 757.923C1381.92 736.623 1423.75 710.836 1463.44 682.737C1506.11 652.54 1543.23 615.958 1585.02 585.516C1689.37 509.534 1845.45 555.733 1960.98 556.268V566.865C1841.56 567.248 1683.63 521.248 1575.3 598.348C1491.49 657.992 1418.83 727.649 1323.09 773.282C1248.88 808.654 1158.87 836.034 1076.79 812.008C998.732 789.161 932.977 736.669 866.257 692.476C804.271 651.422 732.143 605.591 651.88 609.496C564.247 613.768 497.298 682.415 425.292 724.373C292.251 801.886 157.095 823.783 -0.0302734 814.672V792.285L0.000367185 792.3Z" fill="#9E9E9E"/>
<path d="M0 748.291C73.2924 754.141 147.887 762.027 220.658 753.053C283.502 745.305 341.643 722.872 395.892 693.349C471.743 652.081 536.563 586.067 627.75 583.234C717.864 580.432 801.283 628.009 874.545 669.905C951.254 713.761 1028.65 766.284 1116.44 784.567C1203.29 802.652 1290.02 765.028 1366.01 727.833C1408.72 706.931 1449.61 682.66 1488.22 655.603C1529.66 626.585 1564.28 590.845 1603.96 560.525C1700.54 486.733 1853.14 533.299 1961.02 535.52V545.703C1849.41 544.294 1695.13 497.896 1594.75 572.76C1554.03 603.126 1518.18 639.31 1476.14 668.909C1437 696.488 1395.67 721.509 1352.19 742.61C1276.87 779.177 1188.81 813.478 1103.54 793.632C1018.85 773.91 945.141 721.509 871.557 677.622C801.819 636.033 721.97 589.176 635.027 592.407C545.005 595.745 479.464 662.555 404.87 704.068C349.104 735.107 289.309 759.638 224.672 769.744C150.767 781.29 74.8244 775.487 0.0153203 769.943V748.276L0 748.291Z" fill="#9E9E9E"/>
<path d="M0 704.267C136.305 716.134 256.876 733.285 379.959 669.323C458.2 628.667 521.534 563.879 615.019 562.317C711.276 560.709 801.406 610.139 881.27 652.8C963.831 696.917 1048.28 749.991 1141.91 765.595C1231.89 780.586 1315.26 736.393 1392.77 698.065C1433.98 677.684 1473.95 655.051 1511.53 629.188C1551.87 601.426 1584 566.819 1621.59 536.622C1710.83 464.912 1860.33 511.586 1961 515.184V524.785C1857.01 521.799 1706.09 475.126 1613.43 547.8C1574.85 578.059 1541.55 613.247 1500.7 641.622C1462.65 668.067 1422.25 691.511 1380.31 712.168C1303.54 749.991 1218.49 791.09 1129.96 774.721C1039.05 757.908 957.857 705.14 877.992 661.207C801.176 618.944 714.126 570.463 620.733 572.699C528.321 574.919 464.282 640.229 387.144 681.175C334.35 709.213 277.88 729.518 216.844 734.877C145.145 741.171 71.9442 731.309 0 725.23V704.297L0 704.267Z" fill="#9E9E9E"/>
<path d="M-0.000304688 660.258C130.1 671.513 247.607 701.388 367.457 641.637C447.766 601.594 509.569 537.541 605.198 537.679C707.002 537.817 802.907 589.62 888.455 633.384C976.011 678.174 1066.66 732.32 1165.43 745.703C1258.2 758.275 1337.54 707.819 1416.62 668.879C1456.39 649.294 1495.54 628.545 1532.17 604.136C1571.59 577.86 1601.31 544.814 1636.85 514.755C1719.58 444.776 1866.61 491.158 1960.98 495.66V504.496C1863.87 500.346 1715.8 453.765 1630.2 524.479C1593.73 554.615 1562.92 588.441 1523.1 615.437C1486.05 640.55 1446.53 662.218 1406.11 682.201C1327.75 720.942 1246.49 768.581 1154.94 754.967C1058.42 740.619 970.511 687.04 885.115 642.617C802.049 599.405 708.656 548.765 609.319 549.5C514.64 550.205 452.133 614.534 372.728 654.852C251.452 716.425 132.75 692.139 -0.015625 680.471V660.258H-0.000304688Z" fill="#9E9E9E"/>
<path d="M0 616.233C125.565 625.865 241.709 666.123 358.894 609.511C440.827 569.927 500.99 506.119 598.519 508.477C705.041 511.05 805.527 565.824 895.625 611.104C987.042 657.042 1082.84 712.857 1185.88 724.617C1280.75 735.459 1355.68 679.077 1436.23 640.504C1474.66 622.098 1513.08 603.6 1548.9 581.014C1587.58 556.621 1615.11 525.643 1648.63 495.875C1726.06 427.105 1871.48 472.523 1961 477.316V485.263C1869.54 480.516 1723.54 434.578 1643.93 503.807C1609.52 533.728 1581.06 565.686 1542.07 590.967C1505.91 614.426 1467.18 633.981 1428.17 652.953C1348.25 691.833 1271.33 745.642 1177.29 734.127C1076.01 721.708 982.338 666.735 892.485 621.363C804.24 576.803 705.623 523.438 601.077 522.029C504.345 520.727 443.446 584.582 362.172 624.334C243.884 682.186 127.342 646.201 0 635.727V616.233H0Z" fill="#9E9E9E"/>
<path d="M-0.000304688 572.224C123.037 579.207 239.456 627.014 354.803 572.224C437.762 532.824 496.179 468.725 595.24 473.993C705.393 479.842 809.004 538.199 902.305 585.455C996.203 633.016 1095.88 691.236 1202.12 702.092C1298.09 711.892 1368.41 649.998 1450.22 613.171C1487.45 596.419 1525.21 580.708 1560.42 560.464C1598.57 538.536 1624.2 510.207 1655.77 480.929C1729.49 412.604 1874.42 456.23 1960.98 460.563V467.485C1873.43 462.86 1728.44 418.346 1653.37 486.748C1620.97 516.271 1594.58 545.794 1556.22 568.856C1520.79 590.171 1482.75 607.138 1445.03 624.655C1363.71 662.432 1291.43 722.014 1195.78 711.862C1090.74 700.714 992.557 643.613 899.532 596.801C807.411 550.45 704.933 493.7 596.19 489.351C497.726 485.416 438.559 549.332 355.952 588.762C239.931 644.133 123.849 599.175 -0.015625 590.937V572.178L-0.000304688 572.224Z" fill="#9E9E9E"/>
<path d="M0.000367185 528.2C124.738 531.508 242.705 583.908 358.863 527.465C435.021 490.454 491.032 428.682 582.172 432.48C699.572 437.364 809.817 504.358 908.051 555.901C1003.68 606.081 1106.14 668.251 1215.51 677.883C1309.23 686.136 1372.3 621.608 1453.16 588.762C1489.75 573.893 1527.4 561.613 1562.75 544.447C1601.37 525.689 1625.81 501.893 1655.61 472.507C1727.46 401.67 1874.26 442.755 1960.98 445.802V451.59C1874.38 447.869 1728.01 405.453 1655.77 475.968C1625.26 505.751 1600.28 531.033 1561.49 551.261C1526.03 569.759 1488.15 583.556 1451.19 599.374C1370.59 633.843 1305.8 696.35 1211.76 688.051C1103.02 678.449 1001.32 617.765 905.829 568.503C808.024 518.048 698.116 453.075 581.513 450.105C490.618 447.777 434.086 509.013 357.837 545.932C241.525 602.253 124.57 551.231 -0.0302734 546.223V528.185L0.000367185 528.2Z" fill="#9E9E9E"/>
<path d="M0 484.191C125.335 485.768 247.193 545.657 364.532 490.699C440.995 454.882 496.01 391.901 587.151 397.475C704.367 404.641 813.723 473.87 911.283 526.669C1005.95 577.906 1108.09 641.821 1217.23 651.713C1309.73 660.105 1369.85 593.249 1451.84 566.084C1487.69 554.201 1524.92 546.3 1559.9 532.564C1598.83 517.282 1622.24 496.503 1651.12 467.806C1723.78 395.591 1872.11 431.086 1961 433V437.962C1873.21 435.849 1725.42 397.567 1653.32 469.215C1624.29 498.049 1600.56 519.594 1562 536.209C1526.9 551.322 1489.47 560.97 1453.41 574.139C1372.06 603.83 1311.13 670.441 1218.21 662.065C1108.56 652.188 1005.82 588.288 910.548 537.036C812.36 484.222 702.375 414.992 584.577 407.826C493.283 402.283 437.962 464.912 361.866 501.709C245.37 558.045 125.259 502.857 0.0153203 501.51V484.206L0 484.191Z" fill="#9E9E9E"/>
<path d="M0 440.167C78.7004 440.764 147.274 457.608 221.608 475.708C275.873 488.923 324.653 486.611 375.777 464.606C454.079 430.903 507.378 367.86 599.637 374.031C714.386 381.702 820.127 450.87 914.623 504.236C1005.21 555.396 1103.6 619.541 1209.49 628.775C1301.63 636.799 1358.19 567.309 1441.12 544.554C1476.62 534.815 1513.37 530.926 1548.61 521.034C1589.25 509.61 1613.06 490.546 1645.28 465.188C1730.71 397.934 1861.82 414.64 1961.03 417.917V424.18C1865.69 421.255 1728.71 396.969 1647.85 466.137C1616.84 492.659 1593.42 512.367 1553.45 525.26C1518.37 536.576 1481.49 542.028 1445.92 552.456C1363.14 576.711 1305.57 645.251 1213.12 637.09C1105.88 627.626 1005.92 563.588 913.642 512.382C817.829 459.231 710.571 390.063 594.75 382.591C502.797 376.665 448.916 439.616 371.242 474.238C320.869 496.686 272.165 501.234 217.794 489.52C144.654 473.763 76.8926 457.47 0.0459609 456.781V440.197L0 440.167Z" fill="#9E9E9E"/>
<path d="M-0.000304689 396.158C83.955 396.663 155.271 415.238 232.807 439.769C286.903 456.888 336.189 460.977 389.764 440.32C469.353 409.648 521.488 346.008 613.823 352.853C725.003 361.107 825.933 430.321 916.047 484.206C1001.34 535.183 1094.8 599.742 1196.45 608.378C1287.9 616.142 1341.14 542.87 1424.76 524.816C1460.53 517.098 1497.22 516.838 1533 510.529C1575.63 503.011 1601.29 485.753 1636.56 462.799C1732.39 400.445 1852.24 395.178 1961 398.256V405.789C1855.55 402.467 1732.33 399.557 1639.98 463.626C1605.8 487.346 1580.92 505.262 1539.03 514.189C1503.49 521.753 1466.81 523.3 1431.21 531.737C1347.79 551.476 1293.43 623.323 1201.66 615.468C1098.39 606.632 1003.02 542.242 915.71 491.174C823.88 437.472 721.096 368.288 608.523 360.249C516.11 353.649 463.623 417.029 384.432 448.88C331.792 470.057 282.751 468.327 228.609 452.616C152.238 430.443 82.0093 412.527 -0.015625 412.006V396.142L-0.000304689 396.158Z" fill="#9E9E9E"/>
<path d="M0 352.133C89.6391 352.761 164.448 373.479 245.217 404.672C299.267 425.543 349.548 436.522 406.034 417.596C486.359 390.676 537.911 326.025 629.45 333.605C736.218 342.44 831.341 411.838 916.032 466.137C995.024 516.777 1082.67 581.902 1179.28 590.003C1269.5 597.567 1320.03 520.054 1403.98 506.548C1440.54 500.668 1477.51 503.868 1514.03 500.897C1558.93 497.238 1587.21 481.971 1625.61 460.609C1729.89 402.574 1843.91 373.464 1961 374.995V383.356C1846.65 381.166 1731.13 401.931 1629.59 461.36C1592.29 483.196 1564.97 499.152 1520.88 504.144C1484.63 508.232 1447.8 506.211 1411.55 512.704C1327.69 527.756 1276.27 603.769 1185.58 596.143C1087.16 587.859 997.414 522.963 916.17 472.186C829.503 418.024 732.28 348.688 623.92 340.052C532.013 332.732 480.338 397 400.213 425.267C344.768 444.822 294.87 436.262 240.82 416.662C161.17 387.766 87.6475 367.829 0 367.262V352.133Z" fill="#9E9E9E"/>
<path d="M0 308.124C95.6907 309.089 174.59 332.334 258.622 370.31C312.78 394.78 364.486 413.017 424.173 396.219C504.743 373.541 556.296 307.634 646.333 315.965C748.091 325.367 836.658 395.009 915.098 449.63C987.026 499.718 1068.1 565.579 1159.12 573.143C1247.72 580.509 1295.84 498.57 1379.96 489.321C1417.65 485.171 1455.14 491.74 1492.58 491.863C1539.95 492.016 1571.3 478.878 1612.97 458.511C1724.71 403.891 1836.6 349.99 1961 348.979V357.738C1838.91 357.83 1726.61 403.569 1617.26 459.185C1576.69 479.827 1546.37 493.67 1499.83 494.772C1462.69 495.645 1425.4 490.163 1388.11 494.864C1304.03 505.476 1255.15 585.945 1165.98 578.518C1073.08 570.785 989.784 505.17 915.481 454.882C834.911 400.353 744.138 330.803 640.68 321.569C550.091 313.499 498.6 378.977 418.061 403.079C359.445 420.628 308.245 404.794 254.133 381.473C171.189 345.733 93.6684 323.361 0 322.518V308.109V308.124Z" fill="#9E9E9E"/>
<path d="M0 264.1C102.064 265.57 185.468 291.755 272.809 336.53C327.273 364.445 380.694 390.17 443.768 375.914C524.2 357.723 576.258 290.515 664.289 299.565C760.699 309.487 842.158 379.405 913.749 434.21C978.095 483.471 1052.06 550.251 1137.12 557.248C1175.99 560.449 1209.37 546.989 1238.97 523.377C1274.18 495.293 1307.97 475.57 1353.86 472.706C1392.8 470.272 1431.22 479.796 1469.54 483.165C1519.27 487.545 1554.43 476.045 1599.26 456.414C1718.46 404.182 1829.87 325.183 1961.02 321.14V329.93C1831.94 332.992 1720.44 404.197 1603.61 457.057C1559.87 476.856 1525.77 489.03 1476.83 485.845C1438.81 483.364 1400.64 474.85 1362.13 477.821C1316.61 481.328 1282.97 500.928 1247.78 528.598C1217.57 552.348 1183.43 565.349 1144.09 562.103C1057.15 554.921 980.929 488.448 914.178 438.896C840.411 384.137 756.701 314.295 658.605 304.541C569.916 295.706 518.056 362.515 437.548 382.116C375.547 397.214 322.676 373.832 268.335 346.973C182.021 304.311 100.042 279.076 0 277.774V264.1Z" fill="#9E9E9E"/>
<path d="M0 220.091C108.667 222.22 196.835 251.666 287.516 303.224C342.516 334.493 397.823 367.798 464.343 356.452C544.377 342.793 597.354 274.329 683.071 284.083C774.028 294.435 848.056 364.644 912.432 419.479C968.887 467.561 1035.41 535.458 1114.35 541.828C1151.67 544.845 1182.56 529.762 1210.11 506.732C1245.31 477.3 1279.77 457.179 1326.79 456.322C1367.2 455.587 1406.45 468.419 1445.73 474.575C1498.02 482.767 1536.63 473.549 1584.99 454.27C1659.08 424.731 1725.85 388.792 1792.74 347.295C1846.94 313.668 1897.19 295.752 1960.98 292.398V300.897C1898.32 303.806 1847.38 320.359 1793.15 351.95C1726.86 390.553 1661.07 425.482 1589.19 454.913C1541.88 474.284 1504.29 484.176 1452.75 477.117C1413.74 471.772 1374.74 459.905 1334.75 461.145C1288.06 462.6 1253.81 482.599 1218.61 511.616C1190.45 534.831 1158.83 549.408 1121.03 546.346C1040.28 539.777 971.538 472.232 912.754 423.767C846.233 368.932 769.999 298.799 677.449 288.57C591.027 279.015 538.356 347.126 458.185 362.117C392.69 374.368 337.935 343.298 283.119 312.994C193.45 263.411 106.706 234.96 0 233.03V220.076V220.091Z" fill="#9E9E9E"/>
<path d="M0 176.067C115.454 178.976 208.525 211.96 302.546 270.256C358.311 304.832 415.563 345.702 485.516 337.586C565.182 328.353 619.048 259.077 702.544 269.184C788.077 279.535 854.827 350.464 911.712 404.993C960.231 451.498 1019.17 520.697 1092.03 526.332C1127.77 529.104 1156.15 512.229 1181.62 489.857C1216.36 459.338 1252.18 437.977 1299.99 439.723C1342.01 441.269 1381.75 456.904 1422.11 465.8C1476.88 477.867 1518.84 471.022 1570.84 451.958C1652.3 422.098 1723.04 382.866 1791.4 331.476C1845.38 290.897 1893.02 268.48 1961.02 263.61V271.542C1894.23 275.998 1845.82 297.191 1791.77 335.841C1723.73 384.489 1654.18 422.817 1574.74 452.601C1523.76 471.726 1482.72 479.23 1428.62 468.25C1388.51 460.104 1348.97 445.388 1307.36 444.362C1259.8 443.199 1224.25 464.438 1189.44 494.573C1163.39 517.144 1134.33 533.498 1098.14 530.65C1023.61 524.801 962.56 455.985 911.85 408.99C852.943 354.415 784.094 283.517 697.105 273.257C612.966 263.334 559.421 332.303 479.618 342.762C410.615 351.797 353.899 313.024 298.363 279.367C205.262 222.955 113.554 190.981 0 188.302V176.082V176.067Z" fill="#9E9E9E"/>
<path d="M0 132.058C121.076 135.748 219.387 171.687 315.782 236.246C371.778 273.747 430.991 322.289 503.318 319.318C587.856 315.857 644.909 238.834 732.296 256.229C808.07 271.312 864.265 338.337 912.095 390.37C952.326 434.134 1003.97 504.236 1069.83 510.407C1108.06 513.99 1134.74 490.515 1160.21 467.041C1194.1 435.803 1231.85 417.994 1278.99 423.001C1322.1 427.58 1362.04 446.445 1403.14 457.654C1460.87 473.396 1507.96 466.643 1564.07 447.287C1650.66 417.412 1724.26 374.766 1791.7 314.893C1844.63 267.913 1889.27 241.927 1961.03 235.787V242.922C1890.47 248.726 1845.03 273.686 1791.93 318.92C1724.53 376.328 1652.17 418.208 1567.33 447.992C1512.21 467.332 1465.94 474.712 1408.87 460.043C1367.98 449.538 1328.16 431.53 1285.4 427.518C1238.43 423.108 1200.87 440.871 1166.93 471.803C1140.89 495.538 1113.71 518.354 1075.01 514.679C1007.65 508.278 954.088 438.574 911.896 394.228C862.273 342.088 804.24 275.079 727.225 260.042C639.163 242.831 582.555 319.517 497.803 324.172C426.349 328.108 367.611 281.465 311.906 244.821C216.323 181.962 119.299 147.018 0 143.558V132.058Z" fill="#9E9E9E"/>
<path d="M0 88.0334C127.833 92.6119 231.153 132.364 330.704 203.446C387.88 244.27 448.855 299.932 524.368 300.774C608.339 301.708 666.97 223.506 752.044 241.544C823.421 256.673 872.768 323.667 914.056 375.179C946.857 416.095 991.822 488.724 1051.98 493.348C1088.62 496.166 1113.33 470.563 1136.84 447.946C1170.43 415.636 1208.73 397.704 1256.3 405.054C1300.62 411.915 1340.85 434.149 1382.61 448.068C1442.58 468.067 1492.63 463.733 1552.47 444.408C1645.49 414.365 1724.09 369.069 1791.28 300.009C1809.56 281.22 1826.95 261.282 1848.06 245.602C1882.65 219.907 1919.11 213.675 1961 209.709V215.865C1919.53 219.708 1883.25 225.864 1848.61 250.671C1827.42 265.861 1809.74 285.216 1791.3 303.546C1723.98 370.402 1646.64 415.1 1555.15 445.128C1496.21 464.468 1446.85 469.414 1387.39 450.472C1345.77 437.211 1305.58 415.819 1261.52 409.541C1214.04 402.773 1175.83 420.689 1142.16 452.754C1118.14 475.631 1093.07 500.576 1056.01 497.636C994.564 492.766 947.852 420.52 913.382 378.961C870.546 327.311 819.56 260.287 747.172 245.158C661.577 227.273 603.329 305.184 519.251 305.307C444.504 305.414 383.927 251.482 327.073 211.47C228.303 141.965 126.163 103.178 0 98.8136V88.0334Z" fill="#9E9E9E"/>
<path d="M0 44.009C134.558 49.491 242.658 93.1478 345.274 170.6C403.767 214.747 466.197 277.33 544.775 282.108C628.592 287.207 688.602 207.948 772.006 226.4C839.66 241.376 882.756 308.109 918.131 358.963C944.635 397.076 982.798 471.221 1038.06 474.682C1072.99 476.856 1096.74 448.573 1118.28 426.982C1151.4 393.784 1189.78 375.807 1237.42 385.699C1282.68 395.101 1322.8 420.827 1364.92 437.548C1426.67 462.064 1479.25 460.303 1542.72 441.162C1641.65 411.333 1725.57 363.94 1791.82 286.273C1809.34 265.708 1825.48 243.627 1846.14 226.048C1880.37 196.923 1917.55 190.568 1961.02 186.357V191.395C1917.89 195.575 1880.87 201.945 1846.53 230.32C1825.75 247.486 1809.31 269.107 1791.6 289.274C1725.08 365.027 1642.4 412.007 1544.76 441.928C1482.1 461.13 1430.06 463.488 1368.67 440.029C1326.62 423.966 1286.42 399.037 1241.34 390.247C1193.68 380.952 1155.26 398.929 1122.03 431.944C1100.06 453.764 1076.14 481.435 1040.85 479.092C984.529 475.356 944.85 401.533 916.997 362.76C880.351 311.738 835.892 244.928 767.456 229.891C683.73 211.501 624.027 290.53 540.209 286.365C462.321 282.491 400.182 221.469 342.011 178.088C240.054 102.106 133.026 59.3525 0 54.0696V44.0243V44.009Z" fill="#9E9E9E"/>
<path d="M0 0C141.115 6.35482 253.796 53.9164 359.292 137.601C419.102 185.055 482.728 254.3 564.14 263.105C648.356 272.216 709.438 191.931 792.029 210.521C856.804 225.114 894.507 291.188 924.826 341.384C946.091 376.588 978.125 451.927 1029.23 453.979C1062.68 455.326 1086.13 424.41 1106 403.692C1138.47 369.85 1176.25 351.919 1223.6 364.629C1269.4 376.925 1308.89 406.295 1350.99 425.926C1413.94 455.296 1468.51 456.276 1535.45 437.564C1639.5 408.454 1729.04 359.713 1793.61 274.161C1810.25 252.11 1824.92 228.191 1844.95 208.989C1878.5 176.817 1916.34 170.784 1961.02 166.665V170.493C1916.56 174.658 1878.85 180.814 1845.13 212.373C1824.96 231.254 1809.96 254.82 1793.1 276.58C1728.13 360.525 1639.79 409.066 1536.75 438.375C1470.54 457.21 1416.33 456.827 1353.58 428.514C1311.45 409.51 1271.77 380.921 1226.05 369.268C1178.61 357.171 1140.63 375.133 1108.01 408.852C1087.82 429.739 1064.36 460.104 1030.63 458.573C978.707 456.199 945.447 381.075 923.171 345.258C891.872 294.925 853.112 228.666 787.801 213.981C705.117 195.376 644.234 275.462 560.157 267.178C479.327 259.231 415.931 191.364 356.396 144.614C251.483 62.2313 139.752 15.4966 0 9.3255V0Z" fill="#9E9E9E"/>
</g>
<defs>
<clipPath id="clip0_33_1664">
<rect width="1961" height="1083.15" fill="white"/>
</clipPath>
</defs>
</svg>
